$MeshFormat
4.1 0 8
$EndMeshFormat
$Entities
29 34 6 0
1 1 0 0 0 
2 0.975528 0.003501 0 0 
3 0.904508 0.013071 0 0 
4 0.793893 0.026405 0 0 
5 0.654508 0.040686 0 0 
6 0.5 0.052862 0 0 
7 0.345492 0.059557 0 0 
8 0.206107 0.057712 0 0 
9 0.09549199999999999 0.046049 0 0 
10 0.024472 0.025893 0 0 
11 0 0 0 0 
12 0.024472 -0.025893 0 0 
13 0.09549199999999999 -0.046049 0 0 
14 0.206107 -0.057712 0 0 
15 0.345492 -0.059557 0 0 
16 0.5 -0.052862 0 0 
17 0.654508 -0.040686 0 0 
18 0.793893 -0.026405 0 0 
19 0.904508 -0.013071 0 0 
20 0.975528 -0.003501 0 0 
200 0 4 0 0 
201 0 -4 0 0 
202 -2.7 0 0 0 
203 0.3 0 0 0 
210 6 4 0 0 
211 6 -4 0 0 
212 6 0 0 0 
230 6 12 0 0 
231 6 -12 0 0 
1 0.975528 0 0 1 0.003501 0 1 303 2 1 -2 
2 0.904508 0.003501000000000001 0 0.975528 0.013071 0 1 303 2 2 -3 
3 0.793893 0.013071 0 0.904508 0.026405 0 1 303 2 3 -4 
4 0.654508 0.026405 0 0.793893 0.040686 0 1 303 2 4 -5 
5 0.5 0.040686 0 0.654508 0.052862 0 1 303 2 5 -6 
6 0.345492 0.052862 0 0.5 0.059557 0 1 303 2 6 -7 
7 0.206107 0.057712 0 0.345492 0.059557 0 1 303 2 7 -8 
8 0.09549199999999999 0.046049 0 0.206107 0.057712 0 1 303 2 8 -9 
9 0.02447199999999999 0.025893 0 0.09549199999999999 0.046049 0 1 303 2 9 -10 
10 0 0 0 0.024472 0.025893 0 1 303 2 10 -11 
11 0 -0.025893 0 0.024472 0 0 1 303 2 11 -12 
12 0.024472 -0.046049 0 0.09549199999999999 -0.025893 0 1 303 2 12 -13 
13 0.09549199999999999 -0.057712 0 0.206107 -0.046049 0 1 303 2 13 -14 
14 0.206107 -0.059557 0 0.345492 -0.057712 0 1 303 2 14 -15 
15 0.345492 -0.059557 0 0.5 -0.052862 0 1 303 2 15 -16 
16 0.5 -0.052862 0 0.654508 -0.040686 0 1 303 2 16 -17 
17 0.654508 -0.040686 0 0.793893 -0.026405 0 1 303 2 17 -18 
18 0.793893 -0.026405 0 0.904508 -0.013071 0 1 303 2 18 -19 
19 0.904508 -0.013071 0 0.975528 -0.003501000000000001 0 1 303 2 19 -20 
20 0.975528 -0.003501 0 1 0 0 1 303 2 20 -1 
200 -2.7 0 0 0 0 0 0 2 11 -202 
201 0 0.05771199999999999 0 0.206107 4 0 0 2 200 -8 
202 0 -4 0 0.206107 -0.05771199999999999 0 0 2 201 -14 
203 -2.7 0 0 0 4 0 1 300 2 200 -202 
204 -2.7 -4 0 0 0 0 1 300 2 202 -201 
210 1 0 0 6 0 0 0 2 1 -212 
211 6 0 0 6 4 0 1 302 2 210 -212 
212 6 -4 0 6 0 0 1 302 2 211 -212 
220 0 4 0 6 4 0 0 2 200 -210 
221 0 -4 0 6 -4 0 0 2 201 -211 
230 6 4 0 6 12 0 1 302 2 210 -230 
231 6 -12 0 6 -4 0 1 302 2 211 -231 
232 0 4 0 6 12 0 1 300 2 200 -230 
233 0 -12 0 6 -4 0 1 300 2 201 -231 
1 -2.7 0 0 0.206107 4 0 1 236 6 -203 201 8 9 10 200 
2 -2.7 -4 0 0.206107 0 0 1 236 6 -200 11 12 13 -202 -204 
5 0 0 0 6 4 0 1 236 11 -201 220 211 -210 1 2 3 4 5 6 7 
6 0 -4 0 6 0 0 1 236 11 202 14 15 16 17 18 19 20 210 -212 -221 
7 0 4 0 6 12 0 1 236 3 232 -230 -220 
8 0 -12 0 6 -4 0 1 236 3 221 231 -233 
$EndEntities
$Nodes
68 1252 1 1252
0 1 0 1
1
1 -0 0
0 2 0 1
2
0.975528 0.003501 0
0 3 0 1
3
0.904508 0.013071 0
0 4 0 1
4
0.793893 0.026405 0
0 5 0 1
5
0.654508 0.040686 0
0 6 0 1
6
0.5 0.052862 0
0 7 0 1
7
0.345492 0.059557 0
0 8 0 1
8
0.206107 0.057712 0
0 9 0 1
9
0.09549199999999999 0.046049 0
0 10 0 1
10
0.024472 0.025893 0
0 11 0 1
11
0 0 0
0 12 0 1
12
0.024472 -0.025893 0
0 13 0 1
13
0.09549199999999999 -0.046049 0
0 14 0 1
14
0.206107 -0.057712 0
0 15 0 1
15
0.345492 -0.059557 0
0 16 0 1
16
0.5 -0.052862 0
0 17 0 1
17
0.654508 -0.040686 0
0 18 0 1
18
0.793893 -0.026405 0
0 19 0 1
19
0.904508 -0.013071 0
0 20 0 1
20
0.975528 -0.003501 0
0 200 0 1
21
0 4 0
0 201 0 1
22
0 -4 0
0 202 0 1
23
-2.7 0 0
0 210 0 1
24
6 4 0
0 211 0 1
25
6 -4 0
0 212 0 1
26
6 0 0
0 230 0 1
27
6 12 0
0 231 0 1
28
6 -12 0
1 1 0 0
1 2 0 0
1 3 0 0
1 4 0 0
1 5 0 0
1 6 0 0
1 7 0 0
1 8 0 0
1 9 0 0
1 10 0 0
1 11 0 0
1 12 0 0
1 13 0 0
1 14 0 0
1 15 0 0
1 16 0 0
1 17 0 0
1 18 0 0
1 19 0 0
1 20 0 0
1 200 0 8
29
30
31
32
33
34
35
36
-0.2448632161388622 0 0
-0.50196959294621 0 0
-0.7719312886177851 0 0
-1.055391068443133 0 0
-1.353023837911049 0 0
-1.665538246221416 0 0
-1.993678374798253 0 0
-2.33822550942169 0 0
1 201 0 8
37
38
39
40
41
42
43
44
0.02761639071450109 3.471770654480008 0
0.05391771526097063 2.968695086238015 0
0.07896659580921095 2.489575496904508 0
0.1028226725326626 2.033271125903316 0
0.125542745576038 1.598695534981986 0
0.1471809103319027 1.184814020724497 0
0.1677886863356499 0.7906411491274126 0
0.1874151396707939 0.415238414306673 0
1 202 0 8
45
46
47
48
49
50
51
52
0.02761639071450109 -3.471770654480008 0
0.05391771526097063 -2.968695086238015 0
0.07896659580921095 -2.489575496904508 0
0.1028226725326626 -2.033271125903316 0
0.125542745576038 -1.598695534981986 0
0.1471809103319027 -1.184814020724497 0
0.1677886863356499 -0.7906411491274126 0
0.1874151396707939 -0.415238414306673 0
1 203 0 2
53
54
-1.56145905111394 3.250137816964286 0
-2.458543090629907 1.743770831907318 0
1 204 0 2
55
56
-2.413241133275481 -1.715223997217877 0
-1.516874897691707 -3.199036220222351 0
1 210 0 26
57
58
59
60
61
62
63
64
65
66
67
68
69
70
71
72
73
74
75
76
77
78
79
80
81
82
1.185185185185039 0 0
1.37037037037001 0 0
1.555555555555275 0 0
1.740740740740026 0 0
1.925925925924469 0 0
2.111111111109423 0 0
2.296296296294688 0 0
2.481481481479952 0 0
2.666666666665217 0 0
2.851851851850483 0 0
3.037037037035747 0 0
3.222222222221011 0 0
3.407407407406276 0 0
3.592592592591542 0 0
3.777777777776808 0 0
3.962962962962074 0 0
4.14814814814734 0 0
4.333333333332606 0 0
4.518518518517872 0 0
4.703703703703138 0 0
4.888888888888404 0 0
5.074074074073669 0 0
5.259259259258935 0 0
5.444444444444201 0 0
5.629629629629468 0 0
5.814814814814734 0 0
1 211 0 8
83
84
85
86
87
88
89
90
6 3.464037791736163 0
6 2.953597592298975 0
6 2.467464068485975 0
6 2.004479759882126 0
6 1.563542323630061 0
6 1.143601909070737 0
6 0.743658656221029 0
6 0.3627603202077219 0
1 212 0 8
91
92
93
94
95
96
97
98
6 -3.464037791736163 0
6 -2.953597592298975 0
6 -2.467464068485975 0
6 -2.004479759882126 0
6 -1.563542323630061 0
6 -1.143601909070737 0
6 -0.743658656221029 0
6 -0.3627603202077219 0
1 220 0 33
99
100
101
102
103
104
105
106
107
108
109
110
111
112
113
114
115
116
117
118
119
120
121
122
123
124
125
126
127
128
129
130
131
0.1764705882345085 4 0
0.3529411764690157 4 0
0.5294117647036541 4 0
0.7058823529383175 4 0
0.8823529411727387 4 0
1.058823529407171 4 0
1.235294117641836 4 0
1.411764705876501 4 0
1.588235294111166 4 0
1.764705882345831 4 0
1.941176470580495 4 0
2.11764705881516 4 0
2.294117647049825 4 0
2.47058823528449 4 0
2.647058823519155 4 0
2.82352941175382 4 0
2.999999999988572 4 0
3.176470588224456 4 0
3.352941176460428 4 0
3.529411764696399 4 0
3.705882352932371 4 0
3.882352941168342 4 0
4.058823529404314 4 0
4.235294117640285 4 0
4.411764705876257 4 0
4.588235294112228 4 0
4.7647058823482 4 0
4.941176470584171 4 0
5.117647058820142 4 0
5.294117647056114 4 0
5.470588235292086 4 0
5.647058823528057 4 0
5.823529411764028 4 0
1 221 0 33
132
133
134
135
136
137
138
139
140
141
142
143
144
145
146
147
148
149
150
151
152
153
154
155
156
157
158
159
160
161
162
163
164
0.1764705882345085 -4 0
0.3529411764690157 -4 0
0.5294117647036541 -4 0
0.7058823529383175 -4 0
0.8823529411727387 -4 0
1.058823529407171 -4 0
1.235294117641836 -4 0
1.411764705876501 -4 0
1.588235294111166 -4 0
1.764705882345831 -4 0
1.941176470580495 -4 0
2.11764705881516 -4 0
2.294117647049825 -4 0
2.47058823528449 -4 0
2.647058823519155 -4 0
2.82352941175382 -4 0
2.999999999988572 -4 0
3.176470588224456 -4 0
3.352941176460428 -4 0
3.529411764696399 -4 0
3.705882352932371 -4 0
3.882352941168342 -4 0
4.058823529404314 -4 0
4.235294117640285 -4 0
4.411764705876257 -4 0
4.588235294112228 -4 0
4.7647058823482 -4 0
4.941176470584171 -4 0
5.117647058820142 -4 0
5.294117647056114 -4 0
5.470588235292086 -4 0
5.647058823528057 -4 0
5.823529411764028 -4 0
1 230 0 17
165
166
167
168
169
170
171
172
173
174
175
176
177
178
179
180
181
6 4.28436978016239 0
6 4.58295804789744 0
6 4.896475728580532 0
6 5.225669292398526 0
6 5.571322535332446 0
6 5.93425844222886 0
6 6.31534114280767 0
6 6.715477976720758 0
6 7.1356216542863 0
6 7.57677251655632 0
6 8.039980920045178 0
6 8.526349744059665 0
6 9.037037011344538 0
6 9.573258640074425 0
6 10.13629134935229 0
6 10.72747569544352 0
6 11.34821925923863 0
1 231 0 17
182
183
184
185
186
187
188
189
190
191
192
193
194
195
196
197
198
6 -4.28436978016239 0
6 -4.58295804789744 0
6 -4.896475728580532 0
6 -5.225669292398526 0
6 -5.571322535332446 0
6 -5.93425844222886 0
6 -6.31534114280767 0
6 -6.715477976720758 0
6 -7.1356216542863 0
6 -7.57677251655632 0
6 -8.039980920045178 0
6 -8.526349744059665 0
6 -9.037037011344538 0
6 -9.573258640074425 0
6 -10.13629134935229 0
6 -10.72747569544352 0
6 -11.34821925923863 0
1 232 0 19
199
200
201
202
203
204
205
206
207
208
209
210
211
212
213
214
215
216
217
0.1814555243944518 4.241940699192602 0
0.3719838241446117 4.495978432192816 0
0.5720385389891365 4.762718051985515 0
0.7820959893769601 5.042794652502613 0
1.002656312854928 5.336875083806571 0
1.234244652804841 5.645659537073122 0
1.477412407636277 5.969883210181703 0
1.732738549851146 6.310318066468195 0
2.000831001123115 6.667774668164153 0
2.282328074461888 7.043104099282518 0
2.577900000308124 7.437200000410831 0
2.888250522166905 7.85100069622254 0
3.214118570675911 8.28549142756788 0
3.556280022696802 8.74170669692907 0
3.915549546562007 9.220732728749343 0
4.292782547246876 9.723710062995835 0
4.688877198689587 10.25183626491945 0
5.104776581664656 10.80636877555288 0
5.541470932660518 11.38862791021402 0
1 233 0 19
218
219
220
221
222
223
224
225
226
227
228
229
230
231
232
233
234
235
236
0.1814555243944518 -4.241940699192602 0
0.3719838241446117 -4.495978432192816 0
0.5720385389891365 -4.762718051985515 0
0.7820959893769601 -5.042794652502613 0
1.002656312854928 -5.336875083806571 0
1.234244652804841 -5.645659537073122 0
1.477412407636277 -5.969883210181703 0
1.732738549851146 -6.310318066468195 0
2.000831001123115 -6.667774668164153 0
2.282328074461888 -7.043104099282518 0
2.577900000308124 -7.437200000410831 0
2.888250522166905 -7.85100069622254 0
3.214118570675911 -8.28549142756788 0
3.556280022696802 -8.74170669692907 0
3.915549546562007 -9.220732728749343 0
4.292782547246876 -9.723710062995835 0
4.688877198689587 -10.25183626491945 0
5.104776581664656 -10.80636877555288 0
5.541470932660518 -11.38862791021402 0
2 1 0 16
237
238
239
240
241
242
243
244
245
246
247
248
249
250
251
252
-2.125842527848455 1.513591432829352 0
-1.339443265029199 2.820820187513121 0
-1.808984848328998 1.29437295704637 0
-1.127999658780414 2.411946253824679 0
-1.507215629404248 1.085593456069024 0
-0.9266247954629192 2.022542507022673 0
-1.219816373154882 0.8867558360002386 0
-0.7348392112638916 1.651681795614131 0
-0.9461027960972469 0.6973866742517053 0
-0.5521862741465728 1.298481118495662 0
-0.6854231994699375 0.5170350920287117 0
-0.3782310963202636 0.9620995219760686 0
-0.4371569164161399 0.3452716800061821 0
-0.2125594980223632 0.6417360960076086 0
-0.200712837338231 0.1816874780945973 0
-0.05477702346693623 0.3366280713030453 0
2 2 0 16
253
254
255
256
257
258
259
260
261
262
263
264
265
266
267
268
-2.086610604769597 -1.488869604279672 0
-1.7755339102869 -1.273293991494759 0
-1.479270391403267 -1.067983883852756 0
-1.197114659004968 -0.8724504479143694 0
-0.9283949141805803 -0.6862281281910932 0
-0.6724713482411941 -0.5088735383665484 0
-0.4287346182335771 -0.3399644048250732 0
-0.1966043991992654 -0.179098563371393 0
-1.300832966937384 -2.776565721930067 0
-1.095078746729783 -2.374212865549796 0
-0.8991223463146643 -1.991019668571986 0
-0.7124972029773875 -1.626073766522509 0
-0.5347589714369183 -1.278506241167963 0
-0.3654844655783183 -0.9474895510784626 0
-0.2042706501167113 -0.6322355598166798 0
-0.05073368302404256 -0.3319936634037563 0
2 5 0 264
269
270
271
272
273
274
275
276
277
278
279
280
281
282
283
284
285
286
287
288
289
290
291
292
293
294
295
296
297
298
299
300
301
302
303
304
305
306
307
308
309
310
311
312
313
314
315
316
317
318
319
320
321
322
323
324
325
326
327
328
329
330
331
332
333
334
335
336
337
338
339
340
341
342
343
344
345
346
347
348
349
350
351
352
353
354
355
356
357
358
359
360
361
362
363
364
365
366
367
368
369
370
371
372
373
374
375
376
377
378
379
380
381
382
383
384
385
386
387
388
389
390
391
392
393
394
395
396
397
398
399
400
401
402
403
404
405
406
407
408
409
410
411
412
413
414
415
416
417
418
419
420
421
422
423
424
425
426
427
428
429
430
431
432
433
434
435
436
437
438
439
440
441
442
443
444
445
446
447
448
449
450
451
452
453
454
455
456
457
458
459
460
461
462
463
464
465
466
467
468
469
470
471
472
473
474
475
476
477
478
479
480
481
482
483
484
485
486
487
488
489
490
491
492
493
494
495
496
497
498
499
500
501
502
503
504
505
506
507
508
509
510
511
512
513
514
515
516
517
518
519
520
521
522
523
524
525
526
527
528
529
530
531
532
0.3301634346365485 0.4169160911090067 0
0.3140684410135512 0.7921431365722758 0
0.2971686977078899 1.186131534343998 0
0.279423967276366 1.599819351085287 0
0.2607920002824939 2.034191559614158 0
0.2412284349160326 2.490282379102956 0
0.2206866912905834 2.969177739348548 0
0.1991178605077932 3.472017867048488 0
0.4866632235216798 0.4108282611949844 0
0.4726596082269477 0.7866928352481714 0
0.4579558121661614 1.181350638039364 0
0.4425168263366343 1.595741330049538 0
0.4263058911801564 2.030851557612349 0
0.4092844092459278 2.487717297087621 0
0.3914118532231095 2.967426323318638 0
0.3726456694199719 3.471120800302324 0
0.6431630124068231 0.399756503609726 0
0.6312507754403688 0.7767805321977524 0
0.6187429266244706 1.172655762250634 0
0.6056096853969539 1.588324752882741 0
0.5918197820778847 2.024777194001517 0
0.5773403835759037 2.483052257712129 0
0.5621370151557327 2.964241074389577 0
0.5461734783322644 3.469489331340288 0
0.7859113073725917 0.3867706486429752 0
0.7775305301182986 0.7651545795151675 0
0.7687307140005021 1.162457706966548 0
0.7594909070973423 1.57962598986375 0
0.7497891098277936 2.017652687864318 0
0.7396022226828209 2.477580721302674 0
0.7289059911854596 2.960505156193463 0
0.7176749481256905 3.467575812266158 0
0.9024987559414281 0.3746459101704127 0
0.9003890496810478 0.7542995656457182 0
0.8981738581074479 1.152935903930485 0
0.895847906960336 1.571504058199634 0
0.8934056582505217 2.011000621143959 0
0.8908412971021697 2.472472012775004 0
0.8881487178976211 2.957016973767374 0
0.8853215097359802 3.465789182244841 0
0.983082078229917 0.3659438142365314 0
0.9910138603670586 0.7465087689807605 0
0.9993422316118004 1.14610197149798 0
1.008087021399353 1.565674833208974 0
1.017269050696373 2.006226338969542 0
1.026910181469443 2.468805420558884 0
1.037033368776564 2.954513456006936 0
1.047662715437242 3.464506892661509 0
1.021338842364678 0.3627603202068115 0
1.043744626835547 0.7436586562196454 0
1.067270700532063 1.14360190906893 0
1.091973077858529 1.563542323627777 0
1.117910574108071 2.004479759879433 0
1.145144945201825 2.467464068484849 0
1.173741034837266 2.953597592299583 0
1.203766928921158 3.464037791738676 0
1.205733700054667 0.3627603202068452 0
1.227309640656181 0.7436586562196967 0
1.249964378289795 1.143601909068998 0
1.273751852752247 1.563542323627861 0
1.298728700992471 2.004479759879533 0
1.324954391675268 2.46746406848489 0
1.352491366879684 2.953597592299561 0
1.381405190812234 3.464037791738583 0
1.390128557744596 0.3627603202068789 0
1.410874654476759 0.7436586562197481 0
1.432658056047478 1.143601909069064 0
1.455530627645923 1.563542323627946 0
1.479546827876839 2.004479759879632 0
1.504763838148685 2.467464068484932 0
1.531241698922085 2.953597592299539 0
1.559043452703302 3.46403779173849 0
1.57452341543479 0.3627603202069126 0
1.594439668297576 0.7436586562197992 0
1.615351733805371 1.143601909069131 0
1.637309402539779 1.563542323628031 0
1.660364954761352 2.004479759879732 0
1.684573284622214 2.467464068484973 0
1.709992030964562 2.953597592299515 0
1.736681714594409 3.464037791738396 0
1.758918273124519 0.3627603202069464 0
1.778004682117976 0.7436586562198505 0
1.798045411562898 1.143601909069198 0
1.819088177433321 1.563542323628115 0
1.84118308164561 2.004479759879832 0
1.864382731095547 2.467464068485015 0
1.888742363006905 2.953597592299493 0
1.914319976485448 3.464037791738304 0
1.943313130813965 0.3627603202069801 0
1.961569695938125 0.7436586562199016 0
1.980739089320205 1.143601909069265 0
2.000866952326676 1.563542323628199 0
2.022001208529713 2.004479759879931 0
2.044192177568763 2.467464068485057 0
2.067492695049168 2.95359759229947 0
2.091958238376444 3.46403779173821 0
2.127707988503877 0.3627603202070138 0
2.145134709758688 0.7436586562199529 0
2.163432767077876 1.143601909069332 0
2.182645727220342 1.563542323628285 0
2.202819335414072 2.004479759880031 0
2.224001624042172 2.467464068485099 0
2.246243027091564 2.953597592299448 0
2.26959650026751 3.464037791738117 0
2.312102846194074 0.3627603202070475 0
2.328699723579507 0.7436586562200042 0
2.34612644483577 1.143601909069399 0
2.364424502114198 1.563542323628369 0
2.383637462298586 2.004479759880132 0
2.403811070515702 2.46746406848514 0
2.424993359134042 2.953597592299425 0
2.447234762158618 3.464037791738025 0
2.496497703884268 0.3627603202070812 0
2.512264737400323 0.7436586562200554 0
2.528820122593664 1.143601909069465 0
2.546203277008053 1.563542323628454 0
2.5644555891831 2.004479759880231 0
2.583620516989231 2.467464068485183 0
2.603743691176519 2.953597592299404 0
2.624873024049724 3.464037791737931 0
2.680892561574463 0.3627603202071149 0
2.695829751221142 0.7436586562201066 0
2.711513800351557 1.143601909069532 0
2.72798205190191 1.563542323628538 0
2.745273716067614 2.004479759880331 0
2.763429963462761 2.467464068485224 0
2.782494023218997 2.95359759229938 0
2.802511285940832 3.464037791737838 0
2.865287419264666 0.3627603202071487 0
2.879394765041975 0.7436586562201578 0
2.894207478109475 1.143601909069599 0
2.909760826795799 1.563542323628623 0
2.926091842952171 2.00447975988043 0
2.943239409936344 2.467464068485265 0
2.96124435526154 2.953597592299358 0
2.980149547832015 3.464037791737745 0
3.04968227695497 0.3627603202071824 0
3.06295977886302 0.743658656220209 0
3.076901155867717 1.143601909069667 0
3.09153960169013 1.563542323628707 0
3.106909969837296 2.00447975988053 0
3.123048856410626 2.467464068485307 0
3.139994687304918 2.953597592299335 0
3.157787809724178 3.464037791737653 0
3.234077134645283 0.362760320207216 0
3.24652479268408 0.7436586562202604 0
3.259594833625984 1.143601909069733 0
3.273318376584497 1.563542323628792 0
3.287728096722465 2.00447975988063 0
3.302858302884961 2.467464068485349 0
3.31874501934836 2.953597592299313 0
3.335426071616417 3.464037791737558 0
3.418471992335598 0.3627603202072498 0
3.43008980650514 0.7436586562203118 0
3.442288511384251 1.1436019090698 0
3.455097151478864 1.563542323628877 0
3.468546223607633 2.004479759880729 0
3.482667749359296 2.467464068485391 0
3.497495351391802 2.95359759229929 0
3.513064333508655 3.464037791737465 0
3.602866850025911 0.3627603202072835 0
3.613654820326202 0.7436586562203629 0
3.624982189142519 1.143601909069867 0
3.63687592637323 1.563542323628961 0
3.649364350492801 2.004479759880829 0
3.662477195833633 2.467464068485432 0
3.676245683435246 2.953597592299269 0
3.690702595400896 3.464037791737372 0
3.787261707716226 0.3627603202073172 0
3.797219834147263 0.7436586562204139 0
3.807675866900786 1.143601909069934 0
3.818654701267596 1.563542323629046 0
3.83018247737797 2.00447975988093 0
3.842286642307967 2.467464068485474 0
3.854996015478687 2.953597592299245 0
3.868340857293132 3.46403779173728 0
3.971656565406541 0.3627603202073511 0
3.980784847968327 0.7436586562204655 0
3.990369544659054 1.143601909070001 0
4.000433476161964 1.56354232362913 0
4.01100060426314 2.004479759881029 0
4.022096088782304 2.467464068485516 0
4.033746347522129 2.953597592299223 0
4.045979119185374 3.464037791737186 0
4.156051423096854 0.3627603202073847 0
4.164349861789384 0.7436586562205165 0
4.173063222417321 1.143601909070068 0
4.182212251056329 1.563542323629215 0
4.191818731148309 2.004479759881129 0
4.20190553525664 2.467464068485557 0
4.212496679565572 2.9535975922992 0
4.22361738107761 3.464037791737093 0
4.34044628078717 0.3627603202074184 0
4.347914875610447 0.7436586562205679 0
4.35575690017559 1.143601909070135 0
4.363991025950698 1.5635423236293 0
4.372636858033479 2.004479759881229 0
4.381714981730977 2.4674640684856 0
4.391247011609016 2.953597592299178 0
4.401255642969849 3.464037791737 0
4.524841138477485 0.3627603202074522 0
4.531479889431508 0.743658656220619 0
4.538450577933856 1.143601909070202 0
4.545769800845064 1.563542323629385 0
4.553454984918647 2.004479759881328 0
4.561524428205313 2.467464068485641 0
4.569997343652458 2.953597592299154 0
4.578893904862089 3.464037791736907 0
4.709235996167798 0.3627603202074858 0
4.715044903252569 0.7436586562206704 0
4.721144255692127 1.143601909070269 0
4.727548575739434 1.563542323629469 0
4.734273111803816 2.004479759881427 0
4.741333874679649 2.467464068485682 0
4.7487476756959 2.953597592299133 0
4.756532166754329 3.464037791736814 0
4.893630853858115 0.3627603202075195 0
4.898609917073632 0.7436586562207215 0
4.903837933450394 1.143601909070336 0
4.909327350633799 1.563542323629554 0
4.915091238688985 2.004479759881527 0
4.921143321153983 2.467464068485724 0
4.927498007739343 2.95359759229911 0
4.934170428646568 3.464037791736721 0
5.078025711548426 0.3627603202075532 0
5.082174930894692 0.7436586562207729 0
5.08653161120866 1.143601909070402 0
5.091106125528166 1.563542323629638 0
5.095909365574155 2.004479759881627 0
5.10095276762832 2.467464068485766 0
5.106248339782786 2.953597592299088 0
5.111808690538805 3.464037791736628 0
5.262420569238741 0.3627603202075871 0
5.265739944715754 0.7436586562208241 0
5.269225288966928 1.14360190907047 0
5.272884900422532 1.563542323629723 0
5.276727492459323 2.004479759881726 0
5.280762214102657 2.467464068485808 0
5.28499867182623 2.953597592299064 0
5.289446952431044 3.464037791736535 0
5.446815426929055 0.3627603202076208 0
5.449304958536816 0.7436586562208751 0
5.451918966725197 1.143601909070536 0
5.454663675316898 1.563542323629807 0
5.457545619344493 2.004479759881826 0
5.460571660576991 2.46746406848585 0
5.463749003869671 2.953597592299043 0
5.467085214323282 3.464037791736442 0
5.63121028461937 0.3627603202076545 0
5.632869972357877 0.7436586562209265 0
5.634612644483465 1.143601909070603 0
5.636442450211266 1.563542323629892 0
5.638363746229664 2.004479759881926 0
5.640381107051327 2.467464068485891 0
5.642499335913115 2.953597592299019 0
5.644723476215523 3.464037791736349 0
5.815605142309687 0.3627603202076882 0
5.816434986178939 0.7436586562209778 0
5.817306322241733 1.14360190907067 0
5.818221225105631 1.563542323629977 0
5.81918187311483 2.004479759882026 0
5.820190553525662 2.467464068485934 0
5.821249667956558 2.953597592298998 0
5.82236173810776 3.464037791736256 0
2 6 0 264
533
534
535
536
537
538
539
540
541
542
543
544
545
546
547
548
549
550
551
552
553
554
555
556
557
558
559
560
561
562
563
564
565
566
567
568
569
570
571
572
573
574
575
576
577
578
579
580
581
582
583
584
585
586
587
588
589
590
591
592
593
594
595
596
597
598
599
600
601
602
603
604
605
606
607
608
609
610
611
612
613
614
615
616
617
618
619
620
621
622
623
624
625
626
627
628
629
630
631
632
633
634
635
636
637
638
639
640
641
642
643
644
645
646
647
648
649
650
651
652
653
654
655
656
657
658
659
660
661
662
663
664
665
666
667
668
669
670
671
672
673
674
675
676
677
678
679
680
681
682
683
684
685
686
687
688
689
690
691
692
693
694
695
696
697
698
699
700
701
702
703
704
705
706
707
708
709
710
711
712
713
714
715
716
717
718
719
720
721
722
723
724
725
726
727
728
729
730
731
732
733
734
735
736
737
738
739
740
741
742
743
744
745
746
747
748
749
750
751
752
753
754
755
756
757
758
759
760
761
762
763
764
765
766
767
768
769
770
771
772
773
774
775
776
777
778
779
780
781
782
783
784
785
786
787
788
789
790
791
792
793
794
795
796
0.3301634346365485 -0.4169160911090069 0
0.4866632235216796 -0.4108282611949846 0
0.6431630124068231 -0.399756503609726 0
0.7859113073725914 -0.3867706486429752 0
0.9024987559414284 -0.3746459101704127 0
0.983082078229917 -0.3659438142365314 0
1.021338842364678 -0.3627603202068115 0
1.205733700054667 -0.3627603202068452 0
1.390128557744595 -0.3627603202068789 0
1.57452341543479 -0.3627603202069126 0
1.758918273124518 -0.3627603202069464 0
1.943313130813965 -0.3627603202069802 0
2.127707988503877 -0.3627603202070139 0
2.312102846194073 -0.3627603202070476 0
2.496497703884268 -0.3627603202070812 0
2.680892561574463 -0.3627603202071149 0
2.865287419264666 -0.3627603202071488 0
3.049682276954971 -0.3627603202071824 0
3.234077134645283 -0.362760320207216 0
3.418471992335597 -0.3627603202072498 0
3.602866850025912 -0.3627603202072835 0
3.787261707716226 -0.3627603202073172 0
3.971656565406541 -0.3627603202073511 0
4.156051423096854 -0.3627603202073846 0
4.34044628078717 -0.3627603202074184 0
4.524841138477485 -0.3627603202074521 0
4.709235996167798 -0.3627603202074858 0
4.893630853858113 -0.3627603202075195 0
5.078025711548428 -0.3627603202075532 0
5.262420569238744 -0.362760320207587 0
5.446815426929057 -0.3627603202076207 0
5.63121028461937 -0.3627603202076545 0
5.815605142309686 -0.3627603202076882 0
0.3140684410135512 -0.7921431365722759 0
0.4726596082269477 -0.7866928352481714 0
0.6312507754403688 -0.7767805321977524 0
0.7775305301182986 -0.7651545795151675 0
0.9003890496810476 -0.7542995656457181 0
0.9910138603670586 -0.7465087689807604 0
1.043744626835547 -0.7436586562196456 0
1.227309640656181 -0.7436586562196967 0
1.410874654476759 -0.7436586562197481 0
1.594439668297576 -0.7436586562197994 0
1.778004682117976 -0.7436586562198502 0
1.961569695938124 -0.7436586562199016 0
2.145134709758689 -0.7436586562199532 0
2.328699723579507 -0.7436586562200042 0
2.512264737400324 -0.7436586562200554 0
2.695829751221142 -0.7436586562201066 0
2.879394765041975 -0.7436586562201578 0
3.06295977886302 -0.743658656220209 0
3.24652479268408 -0.7436586562202604 0
3.43008980650514 -0.7436586562203118 0
3.613654820326202 -0.7436586562203629 0
3.797219834147263 -0.7436586562204139 0
3.980784847968327 -0.7436586562204655 0
4.164349861789386 -0.7436586562205165 0
4.347914875610448 -0.7436586562205679 0
4.531479889431508 -0.743658656220619 0
4.71504490325257 -0.7436586562206704 0
4.898609917073631 -0.7436586562207217 0
5.082174930894692 -0.7436586562207729 0
5.265739944715753 -0.7436586562208241 0
5.449304958536816 -0.7436586562208751 0
5.632869972357877 -0.7436586562209265 0
5.816434986178939 -0.7436586562209778 0
0.2971686977078899 -1.186131534343998 0
0.4579558121661614 -1.181350638039364 0
0.6187429266244708 -1.172655762250633 0
0.7687307140005021 -1.162457706966548 0
0.8981738581074478 -1.152935903930485 0
0.9993422316118004 -1.14610197149798 0
1.067270700532063 -1.143601909068931 0
1.249964378289795 -1.143601909068997 0
1.432658056047478 -1.143601909069064 0
1.615351733805372 -1.143601909069131 0
1.798045411562898 -1.143601909069198 0
1.980739089320205 -1.143601909069265 0
2.163432767077876 -1.143601909069332 0
2.34612644483577 -1.143601909069399 0
2.528820122593664 -1.143601909069466 0
2.711513800351557 -1.143601909069532 0
2.894207478109474 -1.143601909069599 0
3.076901155867717 -1.143601909069667 0
3.259594833625983 -1.143601909069734 0
3.44228851138425 -1.1436019090698 0
3.624982189142519 -1.143601909069867 0
3.807675866900786 -1.143601909069934 0
3.990369544659054 -1.143601909070001 0
4.173063222417321 -1.143601909070068 0
4.35575690017559 -1.143601909070135 0
4.538450577933857 -1.143601909070202 0
4.721144255692125 -1.143601909070268 0
4.903837933450394 -1.143601909070336 0
5.08653161120866 -1.143601909070402 0
5.269225288966928 -1.14360190907047 0
5.451918966725195 -1.143601909070536 0
5.634612644483465 -1.143601909070603 0
5.81730632224173 -1.143601909070671 0
0.279423967276366 -1.599819351085286 0
0.4425168263366343 -1.595741330049538 0
0.6056096853969539 -1.588324752882741 0
0.7594909070973423 -1.579625989863751 0
0.895847906960336 -1.571504058199634 0
1.008087021399353 -1.565674833208973 0
1.091973077858529 -1.563542323627777 0
1.273751852752247 -1.563542323627861 0
1.455530627645923 -1.563542323627946 0
1.637309402539779 -1.563542323628031 0
1.819088177433321 -1.563542323628115 0
2.000866952326676 -1.5635423236282 0
2.182645727220342 -1.563542323628285 0
2.364424502114198 -1.563542323628369 0
2.546203277008053 -1.563542323628453 0
2.727982051901909 -1.563542323628539 0
2.909760826795798 -1.563542323628623 0
3.091539601690131 -1.563542323628707 0
3.273318376584497 -1.563542323628792 0
3.455097151478863 -1.563542323628877 0
3.63687592637323 -1.563542323628961 0
3.818654701267596 -1.563542323629046 0
4.000433476161964 -1.563542323629131 0
4.182212251056329 -1.563542323629215 0
4.363991025950695 -1.5635423236293 0
4.545769800845064 -1.563542323629385 0
4.727548575739434 -1.563542323629469 0
4.909327350633799 -1.563542323629554 0
5.091106125528166 -1.563542323629638 0
5.272884900422532 -1.563542323629723 0
5.454663675316898 -1.563542323629808 0
5.636442450211266 -1.563542323629892 0
5.818221225105633 -1.563542323629977 0
0.260792000282494 -2.034191559614158 0
0.4263058911801564 -2.030851557612349 0
0.5918197820778847 -2.024777194001517 0
0.7497891098277933 -2.017652687864318 0
0.8934056582505218 -2.011000621143959 0
1.017269050696374 -2.006226338969542 0
1.117910574108071 -2.004479759879432 0
1.298728700992471 -2.004479759879532 0
1.479546827876839 -2.004479759879633 0
1.660364954761353 -2.004479759879732 0
1.84118308164561 -2.004479759879832 0
2.022001208529713 -2.004479759879931 0
2.202819335414071 -2.004479759880031 0
2.383637462298586 -2.00447975988013 0
2.5644555891831 -2.004479759880231 0
2.745273716067614 -2.004479759880331 0
2.926091842952171 -2.00447975988043 0
3.106909969837296 -2.00447975988053 0
3.287728096722465 -2.00447975988063 0
3.468546223607633 -2.004479759880729 0
3.649364350492802 -2.004479759880829 0
3.83018247737797 -2.004479759880929 0
4.011000604263141 -2.004479759881028 0
4.191818731148309 -2.004479759881129 0
4.372636858033479 -2.004479759881229 0
4.553454984918647 -2.004479759881328 0
4.734273111803816 -2.004479759881428 0
4.915091238688985 -2.004479759881527 0
5.095909365574155 -2.004479759881627 0
5.276727492459323 -2.004479759881727 0
5.457545619344493 -2.004479759881826 0
5.638363746229662 -2.004479759881926 0
5.819181873114831 -2.004479759882027 0
0.2412284349160327 -2.490282379102956 0
0.4092844092459278 -2.48771729708762 0
0.5773403835759039 -2.483052257712129 0
0.7396022226828212 -2.477580721302675 0
0.8908412971021695 -2.472472012775004 0
1.026910181469443 -2.468805420558884 0
1.145144945201825 -2.467464068484849 0
1.324954391675268 -2.46746406848489 0
1.504763838148685 -2.467464068484932 0
1.684573284622214 -2.467464068484973 0
1.864382731095547 -2.467464068485015 0
2.044192177568762 -2.467464068485056 0
2.224001624042172 -2.467464068485099 0
2.403811070515702 -2.46746406848514 0
2.583620516989231 -2.467464068485183 0
2.763429963462761 -2.467464068485224 0
2.943239409936344 -2.467464068485265 0
3.123048856410625 -2.467464068485308 0
3.302858302884961 -2.467464068485349 0
3.482667749359296 -2.467464068485391 0
3.662477195833633 -2.467464068485432 0
3.842286642307967 -2.467464068485474 0
4.022096088782304 -2.467464068485516 0
4.20190553525664 -2.467464068485557 0
4.381714981730975 -2.4674640684856 0
4.561524428205312 -2.467464068485641 0
4.741333874679649 -2.467464068485683 0
4.921143321153984 -2.467464068485724 0
5.10095276762832 -2.467464068485766 0
5.280762214102655 -2.467464068485808 0
5.460571660576991 -2.467464068485849 0
5.640381107051327 -2.467464068485891 0
5.820190553525664 -2.467464068485934 0
0.2206866912905835 -2.969177739348547 0
0.3914118532231096 -2.967426323318638 0
0.5621370151557327 -2.964241074389575 0
0.7289059911854596 -2.960505156193464 0
0.8881487178976211 -2.957016973767375 0
1.037033368776564 -2.954513456006936 0
1.173741034837265 -2.953597592299584 0
1.352491366879684 -2.953597592299562 0
1.531241698922085 -2.953597592299539 0
1.709992030964562 -2.953597592299515 0
1.888742363006905 -2.953597592299493 0
2.067492695049168 -2.953597592299471 0
2.246243027091564 -2.953597592299448 0
2.424993359134043 -2.953597592299425 0
2.603743691176519 -2.953597592299403 0
2.782494023218998 -2.95359759229938 0
2.96124435526154 -2.953597592299359 0
3.139994687304918 -2.953597592299335 0
3.31874501934836 -2.953597592299313 0
3.497495351391802 -2.95359759229929 0
3.676245683435245 -2.953597592299268 0
3.854996015478687 -2.953597592299245 0
4.033746347522131 -2.953597592299222 0
4.212496679565572 -2.9535975922992 0
4.391247011609016 -2.953597592299178 0
4.569997343652458 -2.953597592299155 0
4.7487476756959 -2.953597592299133 0
4.927498007739345 -2.95359759229911 0
5.106248339782786 -2.953597592299088 0
5.28499867182623 -2.953597592299064 0
5.463749003869673 -2.953597592299042 0
5.642499335913114 -2.953597592299019 0
5.821249667956556 -2.953597592298998 0
0.1991178605077932 -3.472017867048488 0
0.3726456694199719 -3.471120800302324 0
0.5461734783322644 -3.469489331340288 0
0.7176749481256905 -3.467575812266158 0
0.8853215097359802 -3.465789182244841 0
1.047662715437243 -3.46450689266151 0
1.203766928921158 -3.464037791738677 0
1.381405190812234 -3.464037791738583 0
1.559043452703302 -3.464037791738489 0
1.736681714594409 -3.464037791738396 0
1.914319976485448 -3.464037791738304 0
2.091958238376444 -3.46403779173821 0
2.26959650026751 -3.464037791738118 0
2.447234762158617 -3.464037791738025 0
2.624873024049724 -3.464037791737931 0
2.802511285940832 -3.464037791737838 0
2.980149547832014 -3.464037791737745 0
3.157787809724177 -3.464037791737652 0
3.335426071616417 -3.464037791737558 0
3.513064333508655 -3.464037791737465 0
3.690702595400896 -3.464037791737373 0
3.868340857293133 -3.46403779173728 0
4.045979119185372 -3.464037791737187 0
4.22361738107761 -3.464037791737093 0
4.40125564296985 -3.464037791737 0
4.578893904862087 -3.464037791736907 0
4.756532166754329 -3.464037791736814 0
4.934170428646568 -3.464037791736721 0
5.111808690538805 -3.464037791736628 0
5.289446952431044 -3.464037791736535 0
5.467085214323282 -3.464037791736442 0
5.644723476215521 -3.464037791736349 0
5.82236173810776 -3.464037791736256 0
2 7 0 228
797
798
799
800
801
802
803
804
805
806
807
808
809
810
811
812
813
814
815
816
817
818
819
820
821
822
823
824
825
826
827
828
829
830
831
832
833
834
835
836
837
838
839
840
841
842
843
844
845
846
847
848
849
850
851
852
853
854
855
856
857
858
859
860
861
862
863
864
865
866
867
868
869
870
871
872
873
874
875
876
877
878
879
880
881
882
883
884
885
886
887
888
889
890
891
892
893
894
895
896
897
898
899
900
901
902
903
904
905
906
907
908
909
910
911
912
913
914
915
916
917
918
919
920
921
922
923
924
925
926
927
928
929
930
931
932
933
934
935
936
937
938
939
940
941
942
943
944
945
946
947
948
949
950
951
952
953
954
955
956
957
958
959
960
961
962
963
964
965
966
967
968
969
970
971
972
973
974
975
976
977
978
979
980
981
982
983
984
985
986
987
988
989
990
991
992
993
994
995
996
997
998
999
1000
1001
1002
1003
1004
1005
1006
1007
1008
1009
1010
1011
1012
1013
1014
1015
1016
1017
1018
1019
1020
1021
1022
1023
1024
4.117420932740846 4.164914593129232 0
3.432162229864335 4.161886607282796 0
5.692357862349063 5.905992864682427 0
4.636973999553841 4.140763909679263 0
2.887125680655209 4.162725272222464 0
2.373539108731231 4.155475211034796 0
2.499213709729938 6.653497738499462 0
1.845113427152056 4.188526518927014 0
5.613009645199553 7.064259978474301 0
5.202361216348303 4.209565234255985 0
1.684153028417516 5.731614922881957 0
3.477221568335745 7.917285202603535 0
1.33391527892228 4.157106731067164 0
5.56971252727202 7.896901295591385 0
5.701019942077699 5.228609276068971 0
3.78217729120431 4.150885513605051 0
0.9565669954315541 4.149591330907288 0
1.235366106950273 5.165213167310021 0
5.570470874888514 4.182835156342305 0
4.152777192487297 8.750687411185702 0
5.538692927964517 8.991995076362642 0
5.008423946350752 9.625283574903799 0
0.6026531839812854 4.147566445103244 0
5.76880857404915 4.443569267773887 0
0.656238660047448 4.459620491563567 0
1.037532126494474 4.901856670504078 0
1.306264413787028 4.780251776837107 0
1.482828802773382 5.027194760953813 0
1.586003251747218 4.696304861187565 0
1.740767426636337 4.923827321206779 0
1.852065814587169 4.633095934860428 0
2.000718510972979 4.844197375619011 0
2.09903382100089 4.57308902696747 0
2.253492452039594 4.772503012294618 0
2.161518160156119 5.060434087170636 0
2.412648379727269 4.977646474073949 0
2.308737791203582 5.289771691704862 0
2.565937376580558 5.207729264799413 0
2.642387522687588 4.874323501260667 0
2.819869059720157 5.089239419004778 0
2.686752488217814 5.481969556474577 0
3.019274307574292 5.386284238449773 0
3.249646082579623 5.160433913895745 0
3.396562346235324 5.323699531446474 0
3.319021480321732 5.527713120391315 0
3.576353027659007 5.651462523970975 0
3.849193111202384 5.806086039475154 0
3.964780468370094 5.494263760761504 0
3.72430590961776 6.1561575827585 0
4.118085150062042 5.999739672865772 0
3.998203659296425 6.344187807805242 0
4.385761902152176 6.198092250980336 0
4.270041662487557 6.549169922486078 0
4.487545981914487 5.860023484221928 0
3.453403840901172 5.012328843618296 0
3.604406948021355 6.508402862432671 0
4.754946032982276 6.028841222081735 0
4.833470507169562 5.693361433599181 0
3.270357015225562 4.801144074615492 0
3.184957286663345 5.803838256266689 0
3.446399642712334 4.672303386411023 0
4.580716891946913 5.538229033131832 0
4.905566912920328 5.384110474443549 0
4.667815335799491 5.238761863616284 0
4.983566592323228 5.117048628490402 0
4.76949975052847 4.967978046602669 0
5.096304836295619 4.905385597783257 0
4.432294983821783 5.100512126616708 0
4.511725026429906 4.789613702426366 0
4.288529737511858 4.80164099783206 0
3.634034259745945 4.85341978413662 0
3.782552302827925 4.676798664226058 0
5.197448057775353 5.21389245090854 0
4.399451973731521 4.535708725991971 0
5.103947938849538 5.805514302257558 0
5.042899146085071 6.147028393765964 0
3.313953312162187 4.543991399250106 0
3.109048142461845 4.563781680895385 0
2.35444161283226 4.487823522200168 0
3.115025756252564 4.348284941775575 0
5.350422758235406 6.221344436605758 0
4.534412726570788 4.465884224125479 0
4.336658140879469 4.348045385271662 0
2.145746296822023 4.346562061933081 0
2.079083033170408 5.381465675004099 0
2.204790272399425 5.564248789443649 0
4.208262331140419 4.975497715130272 0
2.948561782425335 4.448412729618551 0
1.136748856893809 4.513461671017265 0
4.155363943142854 4.619411600739965 0
1.471429431323749 4.479543444376448 0
1.677692195935546 5.28090861722427 0
2.844654474875187 4.699884798108017 0
2.80182218982327 4.478468802701075 0
5.297732370401989 6.597144379677405 0
4.969530743703685 6.509850671010961 0
1.957240240652603 4.379174003409195 0
4.906024053279202 4.744807375193309 0
5.038373088894131 4.552434569986596 0
5.290140254866755 4.707979060193548 0
5.322009330705307 4.449102078629104 0
5.512613260226876 4.688217434268211 0
4.893595696279373 4.447376844920687 0
5.393955595630131 4.97627439182162 0
5.2462936178598 10.09424091454972 0
4.228319580898841 5.679486208916892 0
4.155974191766843 4.364886583805256 0
3.974045164899127 4.407424390104349 0
3.57522654079134 4.527819670873377 0
5.744070505947463 4.655088316444633 0
5.235118918615185 6.995473707211519 0
4.882884199150958 6.894986886876335 0
5.149676914115036 7.447368315519344 0
4.779737651173487 7.304297903515192 0
4.434826543302425 7.125167714073753 0
4.265728193695432 7.521851211479954 0
4.68758999532607 7.825321162007182 0
3.953268567482303 7.23716839282058 0
4.53911958850666 9.18028715667994 0
4.748035763849716 8.665118306567598 0
2.211077091103408 6.327452258865474 0
2.717821929249281 6.314024032538933 0
2.938413041531529 6.546414991341057 0
2.903428582152282 6.983603435448028 0
3.310888439746649 6.85229601007631 0
1.939172258333884 6.025043597489341 0
3.189467357219764 7.503872517240628 0
3.802975016822615 8.330605564332952 0
5.70380046322674 5.561913118602494 0
5.420031122215287 5.540658347543578 0
3.47579388255747 7.222222565598319 0
3.645481288903389 5.302967889045571 0
3.994998940835616 4.833690357837538 0
5.128005734279945 4.371595152216085 0
2.491362977055967 4.722738226466924 0
2.452478000942181 5.945331392493403 0
2.800265437600116 5.777888167855699 0
2.978676551226181 6.05819465137693 0
3.242771118433709 6.393309143862679 0
5.590567169619757 7.488866324726668 0
5.474972534886582 8.387249446946885 0
5.147226789295638 7.984001460844833 0
4.915563956730768 4.231305229761563 0
5.551335873803191 9.558532995038538 0
5.119313856708647 8.913696257985936 0
4.132073842438309 6.897386807445276 0
5.645984866046686 6.660191118228221 0
3.847567481492158 5.045760245652906 0
4.334003035642304 5.382728524321564 0
3.051554458639184 4.942798743058519 0
3.002388987764547 5.665901263939315 0
1.456115828235569 5.452914456018925 0
4.465145703929857 4.158232197311607 0
3.960878759183974 4.152311160742351 0
4.288987731324081 4.168679973459331 0
3.254445037724389 4.170216012405294 0
3.607378297449525 4.158101166275261 0
3.068462266298421 4.171143513855125 0
2.709885788339235 4.159276592648657 0
2.539689536173789 4.158664715745618 0
2.409820333099209 4.306851416178191 0
2.199548594642165 4.154925263957962 0
2.031230226828991 4.169565209348307 0
5.672276989346452 6.274847504048081 0
1.599998736502299 4.202549528960714 0
1.43577955228902 4.112573595223078 0
4.667635451310358 6.372098442604378 0
5.430646286511352 4.239904973451158 0
5.430348385579391 5.239157157751809 0
3.68300836215632 4.354120248456208 0
1.134162843180377 4.149279857495362 0
0.7866950613955391 4.153832342349426 0
0.8774735064803258 4.340061982341889 0
5.716956446081389 4.153500292300093 0
3.537466368591437 6.77124110100462 0
5.16914084112329 8.528222680052973 0
2.406637181154494 5.554322078866059 0
3.351146721689823 4.378096934395852 0
5.229398793099336 5.027832172354341 0
1.913816992011056 5.159590690910707 0
3.43779366433144 5.988891346561302 0
0.4184108040004166 4.138862544392999 0
5.156334913032407 5.486342850492276 0
4.048176283154379 7.925700565890637 0
5.392057663716899 5.868599681258944 0
4.563661923580124 6.736369358878988 0
2.577954378889585 4.319136453990172 0
2.755068641480727 4.317991379362929 0
2.606036670880013 4.489825868726903 0
0.5117587822948962 4.30534860253387 0
4.39927814180724 8.29994588986675 0
4.685629875631045 4.302008798842717 0
1.724773702778095 4.4271763939538 0
5.322351970509288 4.294012514187456 0
3.865263356332356 6.67803617919248 0
5.580645822319513 10.13162068295858 0
1.883313877741189 5.535306558056031 0
5.715985264077646 11.14778140585218 0
3.486932326675076 4.292753630685768 0
1.38677886110045 4.291283163956852 0
1.189005405741724 4.307020565952475 0
3.983436823642551 4.260744943448204 0
2.632763626425647 4.629238680978478 0
3.873244787699761 4.294259910706963 0
1.011954603790177 4.26780303643671 0
4.086070986857051 5.223213109771581 0
4.997073665950381 7.76090537144631 0
5.092028077298983 4.138857737299753 0
2.256135303242565 4.271017555170015 0
0.8442529846696972 4.659273640585868 0
5.640882331696979 4.309096364658 0
5.576550165382962 4.477084633527237 0
4.956871458449301 8.277962971548098 0
5.833481301373471 4.13176077291952 0
3.735844877218847 7.57489444923147 0
5.630585905021652 10.67165996185395 0
2.932943424541222 4.324392364656033 0
3.90604121415312 4.512344223029555 0
0.2694201726877042 4.120554008632749 0
3.703885450344099 6.970202466028657 0
4.761651815163214 4.116070727982134 0
4.508524436423197 4.325754297412085 0
4.712680252052997 4.538709502844397 0
5.291310927087801 7.804571210168813 0
2.111216048169291 5.758046251469986 0
0.6500251591028003 4.260469195961026 0
5.6669302572453 4.874255426590428 0
5.768709443253398 4.312713869655855 0
2 8 0 228
1025
1026
1027
1028
1029
1030
1031
1032
1033
1034
1035
1036
1037
1038
1039
1040
1041
1042
1043
1044
1045
1046
1047
1048
1049
1050
1051
1052
1053
1054
1055
1056
1057
1058
1059
1060
1061
1062
1063
1064
1065
1066
1067
1068
1069
1070
1071
1072
1073
1074
1075
1076
1077
1078
1079
1080
1081
1082
1083
1084
1085
1086
1087
1088
1089
1090
1091
1092
1093
1094
1095
1096
1097
1098
1099
1100
1101
1102
1103
1104
1105
1106
1107
1108
1109
1110
1111
1112
1113
1114
1115
1116
1117
1118
1119
1120
1121
1122
1123
1124
1125
1126
1127
1128
1129
1130
1131
1132
1133
1134
1135
1136
1137
1138
1139
1140
1141
1142
1143
1144
1145
1146
1147
1148
1149
1150
1151
1152
1153
1154
1155
1156
1157
1158
1159
1160
1161
1162
1163
1164
1165
1166
1167
1168
1169
1170
1171
1172
1173
1174
1175
1176
1177
1178
1179
1180
1181
1182
1183
1184
1185
1186
1187
1188
1189
1190
1191
1192
1193
1194
1195
1196
1197
1198
1199
1200
1201
1202
1203
1204
1205
1206
1207
1208
1209
1210
1211
1212
1213
1214
1215
1216
1217
1218
1219
1220
1221
1222
1223
1224
1225
1226
1227
1228
1229
1230
1231
1232
1233
1234
1235
1236
1237
1238
1239
1240
1241
1242
1243
1244
1245
1246
1247
1248
1249
1250
1251
1252
4.115847533725574 -4.163625565402166 0
3.422130156692972 -4.164806555360544 0
5.688760449581847 -5.911085689813107 0
4.63594579585033 -4.139545099057171 0
2.897269790737786 -4.174680754114841 0
2.312485836640344 -4.154234556964049 0
2.496144152161307 -6.636777582917464 0
1.78444788547428 -4.18832699747595 0
5.621395879994497 -7.070115637526609 0
5.200152760288872 -4.209535698050395 0
1.675118707786303 -5.7200084347668 0
3.468894465253299 -7.913297241002347 0
1.236470428659713 -4.159598194900635 0
5.613866904520662 -7.881273910885243 0
5.696334872231485 -5.230573492658444 0
3.782745132385492 -4.148835458028715 0
0.8936726831488095 -4.16434260272871 0
1.243799702293591 -5.124856954644852 0
5.576928604061046 -4.183739823030264 0
4.151282592392535 -8.737921567992494 0
5.543780296679989 -8.991068655032795 0
5.008406808610081 -9.621794979762072 0
0.5348829481395031 -4.148631646684903 0
5.758242180306292 -4.44379428758389 0
0.6341968118474196 -4.47325061661895 0
1.05155869946633 -4.79331457860059 0
1.301855073926431 -4.746971675685634 0
1.519856091474764 -4.906044120655521 0
1.572255044307078 -4.606448480279495 0
1.859727361445115 -4.858667720435822 0
1.817557110970838 -4.611460135821194 0
2.069621111272506 -4.573628316618102 0
2.145689979000575 -4.797903781280389 0
2.245964869306557 -5.039236117694077 0
2.525255657470456 -4.963067812480031 0
2.377210506502453 -5.299544570811842 0
2.667612173415264 -5.213120113158542 0
2.775501301766842 -4.876695039963701 0
2.934030155666683 -5.096431981813865 0
2.850208406928085 -5.471915091157434 0
3.133001708578553 -5.330708624791912 0
3.145598015320183 -4.939751666075267 0
3.441689919094369 -5.141386063383664 0
3.322728821882567 -5.578068215038443 0
3.626721055636472 -5.46028360102273 0
3.430592858909867 -5.843186935774349 0
3.813170382789229 -5.787349657958804 0
3.905896420973757 -5.33045191520738 0
3.744733745766451 -6.141865465919537 0
4.082666989886167 -5.922140745926583 0
4.037542192832004 -6.153962906825061 0
4.345787751889716 -6.167359870870967 0
4.253416588973532 -6.511095233499056 0
4.363871917374023 -5.766677340305744 0
3.512030160198474 -4.841848887951795 0
3.719527864406589 -6.371218966586196 0
4.6746536919632 -6.187401532867812 0
4.748729811478412 -5.82030173683885 0
3.282612126832187 -4.736053995493868 0
3.201320966817669 -5.875621432515269 0
3.562563437584341 -4.628630525973227 0
4.539599868064176 -5.372669071242699 0
4.833807912679792 -5.462470360992096 0
4.93569789774515 -5.14923989389268 0
4.636983423520485 -4.990844656787856 0
5.067227250180347 -4.913758361499879 0
4.307057539730048 -5.031665703470916 0
4.49419000631652 -4.698720800919055 0
4.260335369405121 -4.791060433832421 0
3.765583990598547 -4.867768038149218 0
3.761309625013929 -4.654107873607893 0
5.1737705540465 -5.233311354936868 0
4.397039336461916 -4.508223728484102 0
5.067814725397653 -5.862749343996454 0
5.007079513590845 -6.217693057727547 0
3.374210336825633 -4.539485774064467 0
3.086100369551084 -4.607860074926199 0
2.340798439909025 -4.493485806908827 0
3.16060375978722 -4.390674802726906 0
5.33734502016654 -6.246462617697264 0
1.593730709096675 -4.383353570784184 0
4.528306536544298 -4.44516473537975 0
4.335221409702466 -4.336843591534651 0
2.192370386811579 -4.335450829337947 0
2.107953001318918 -5.38174766731092 0
2.222068327573746 -5.589538916505955 0
4.05388333212901 -5.059755966232947 0
2.914682463485852 -4.517096825671868 0
1.134246219249494 -4.502762455472373 0
4.194434896518378 -4.575622259482261 0
1.347859323944648 -4.567164956141072 0
1.699563851498376 -5.241343133528173 0
2.862563551199872 -4.642638465196571 0
2.760757062851422 -4.447589479985067 0
5.289261092075356 -6.622894814248271 0
4.938328356246629 -6.589442677314286 0
2.010962562944042 -4.368873959373991 0
4.870920343194585 -4.742153323129921 0
5.023979207689488 -4.551018674897275 0
5.269245959880574 -4.71001106601457 0
5.310274627777257 -4.450795497704322 0
5.489060749539648 -4.691166637516691 0
4.883494610894146 -4.443251874186315 0
5.378828128541651 -4.980921197284545 0
5.245605627509596 -10.09950669859059 0
4.094250075008238 -5.527759972402922 0
4.11448570783602 -4.355694823625112 0
3.92045863141194 -4.4435639789266 0
3.597640961946869 -4.494129227304619 0
5.728775212870087 -4.657518790154023 0
5.241444611152394 -7.023889391641147 0
4.866943111541104 -6.979563871861337 0
5.203996930491565 -7.498082771821752 0
4.787306017483162 -7.384388415061206 0
4.414306193759801 -7.328244142434277 0
4.371626659777364 -7.653439968794776 0
4.702356862481145 -7.862035274578343 0
4.041422206688195 -7.281151251705416 0
4.53937836681088 -9.177187424761819 0
4.751943963170602 -8.665776482806255 0
2.188966031763911 -6.324444643245526 0
2.671699920056743 -6.246137750203548 0
3.021813656332453 -6.43907195036603 0
1.920629644041541 -6.023413979675825 0
3.795062780038174 -8.315178033854682 0
3.193055637153901 -7.508021434870355 0
5.700014010735788 -5.565839986861043 0
5.407547491422928 -5.555859184299548 0
2.926765123398237 -6.979774727725115 0
3.306743346668347 -6.904036697543891 0
3.797506716962478 -5.101020570468543 0
4.014798026595899 -4.83965847544964 0
5.120659055256757 -4.371302269520657 0
2.417458255501943 -4.731170083042854 0
2.364694778212124 -6.00404464212143 0
2.844557213688512 -5.92631696125082 0
3.130852255884747 -6.089395472852707 0
3.450056145503954 -6.540052753211175 0
5.617865129939365 -7.495085980805415 0
5.498991866924473 -8.384402353188635 0
5.205885454636845 -8.008453004453919 0
4.911932462908689 -4.229612651309978 0
5.552226912627757 -9.559090506865832 0
5.125477552981915 -8.912993497814497 0
3.585251182127559 -7.215169422253568 0
4.137604273844071 -6.876122444135837 0
5.64499995872325 -6.669191688924964 0
4.257906666669722 -5.28806075246417 0
2.963578772972822 -4.762363046981051 0
3.05394044544015 -5.715046928986599 0
1.460398037931778 -5.427311031252871 0
4.463962257946945 -4.155837512371944 0
3.970588181823253 -4.152828010344662 0
4.285280029105105 -4.165380214416519 0
3.245683713375514 -4.167525451337849 0
3.603922717278706 -4.159264957222875 0
3.07185047396432 -4.174726640004844 0
2.720004403244284 -4.182753075537772 0
2.482383889156802 -4.162419645465496 0
2.441924308831368 -4.314632540121982 0
2.146742936223937 -4.165241795849491 0
1.969966147795428 -4.180873541547452 0
5.668167255432679 -6.283602924722977 0
1.596809757055244 -4.185590801760316 0
1.411102792291194 -4.174621495732575 0
4.592282049624654 -6.554818943229949 0
5.431750001899906 -4.241673102157257 0
5.417726325984602 -5.248586538620094 0
3.791028599731171 -6.769330682575436 0
5.185297764483982 -8.530428706496652 0
2.524571315331148 -5.655702574330699 0
1.066549656088287 -4.156814651065798 0
0.7094340547877861 -4.163953252477775 0
0.9210822159615838 -4.374741619733864 0
5.721874680620293 -4.153734819355309 0
3.471917044440552 -4.362877000859959 0
5.207552772518139 -5.038666331603451 0
1.972554159399502 -5.125489063071938 0
3.675942253714532 -4.319153963943796 0
3.438410572332261 -6.141001529663912 0
0.3695956282570448 -4.129510160380532 0
5.121993443737768 -5.527618912615138 0
4.049498929743268 -7.822465959309664 0
5.376192852555723 -5.893639998255944 0
4.502501391746322 -6.934820861709354 0
2.60626485725553 -4.375455139541987 0
2.809046088499729 -4.333959907172806 0
2.550333849429093 -4.500751680011105 0
0.5268775210382252 -4.313893279027748 0
4.408855095962571 -8.295883039407745 0
4.681122449726684 -4.296362233483853 0
5.318291161632112 -4.295552074786245 0
5.580578671981206 -10.13317989174158 0
1.888092437800755 -5.523564514664843 0
3.93970854864147 -6.446336765631511 0
5.715932373935964 -11.14832388752963 0
1.390125379099542 -4.3604895144606 0
1.203365218325191 -4.32150955930759 0
3.973314463946546 -4.262076703741221 0
2.673156901571957 -4.63439419334251 0
3.851591724839343 -4.290996604209378 0
1.073151238090719 -4.280300234337306 0
4.074451205734179 -5.224666630872489 0
5.046696238319581 -7.791076726487288 0
5.090184021908684 -4.138493880898653 0
2.319227936196041 -4.270212595031744 0
0.7776676343888941 -4.597175095213059 0
5.647119248176715 -4.311460446393574 0
4.977364069141574 -8.288628547639522 0
3.732501124058695 -4.477989024712875 0
5.569592254645394 -4.487632582281074 0
0.3682986270465074 -4.236523433626115 0
5.835322772038065 -4.13185222311462 0
5.63035291303963 -10.67405723741389 0
2.935625558068085 -4.352094388297049 0
0.242490970223643 -4.109113328486963 0
4.760317694935289 -4.114976396273855 0
4.504879405773003 -4.316204160067717 0
4.694106857072156 -4.521798192543632 0
3.68574023634754 -7.661269634228336 0
5.347876353138689 -7.816477394346864 0
3.972323428245344 -4.62732324408571 0
0.6810248989322779 -4.33707806977304 0
2.103240512093352 -5.774189118232959 0
3.293139168603809 -4.301469062235153 0
5.655750007179377 -4.876900467694949 0
5.770784015041288 -4.313950685786882 0
1.801125237204718 -4.387933504899364 0
$EndNodes
$Elements
34 1312 1 1312
1 1 1 1
1 1 2 
1 2 1 1
2 2 3 
1 3 1 1
3 3 4 
1 4 1 1
4 4 5 
1 5 1 1
5 5 6 
1 6 1 1
6 6 7 
1 7 1 1
7 7 8 
1 8 1 1
8 8 9 
1 9 1 1
9 9 10 
1 10 1 1
10 10 11 
1 11 1 1
11 11 12 
1 12 1 1
12 12 13 
1 13 1 1
13 13 14 
1 14 1 1
14 14 15 
1 15 1 1
15 15 16 
1 16 1 1
16 16 17 
1 17 1 1
17 17 18 
1 18 1 1
18 18 19 
1 19 1 1
19 19 20 
1 20 1 1
20 20 1 
1 203 1 3
21 21 53 
22 53 54 
23 54 23 
1 204 1 3
24 23 55 
25 55 56 
26 56 22 
1 211 1 9
27 24 83 
28 83 84 
29 84 85 
30 85 86 
31 86 87 
32 87 88 
33 88 89 
34 89 90 
35 90 26 
1 212 1 9
36 25 91 
37 91 92 
38 92 93 
39 93 94 
40 94 95 
41 95 96 
42 96 97 
43 97 98 
44 98 26 
1 230 1 18
45 24 165 
46 165 166 
47 166 167 
48 167 168 
49 168 169 
50 169 170 
51 170 171 
52 171 172 
53 172 173 
54 173 174 
55 174 175 
56 175 176 
57 176 177 
58 177 178 
59 178 179 
60 179 180 
61 180 181 
62 181 27 
1 231 1 18
63 25 182 
64 182 183 
65 183 184 
66 184 185 
67 185 186 
68 186 187 
69 187 188 
70 188 189 
71 189 190 
72 190 191 
73 191 192 
74 192 193 
75 193 194 
76 194 195 
77 195 196 
78 196 197 
79 197 198 
80 198 28 
1 232 1 20
81 21 199 
82 199 200 
83 200 201 
84 201 202 
85 202 203 
86 203 204 
87 204 205 
88 205 206 
89 206 207 
90 207 208 
91 208 209 
92 209 210 
93 210 211 
94 211 212 
95 212 213 
96 213 214 
97 214 215 
98 215 216 
99 216 217 
100 217 27 
1 233 1 20
101 22 218 
102 218 219 
103 219 220 
104 220 221 
105 221 222 
106 222 223 
107 223 224 
108 224 225 
109 225 226 
110 226 227 
111 227 228 
112 228 229 
113 229 230 
114 230 231 
115 231 232 
116 232 233 
117 233 234 
118 234 235 
119 235 236 
120 236 28 
2 1 3 27
121 23 54 237 36 
122 54 53 238 237 
123 53 21 37 238 
124 36 237 239 35 
125 237 238 240 239 
126 238 37 38 240 
127 35 239 241 34 
128 239 240 242 241 
129 240 38 39 242 
130 34 241 243 33 
131 241 242 244 243 
132 242 39 40 244 
133 33 243 245 32 
134 243 244 246 245 
135 244 40 41 246 
136 32 245 247 31 
137 245 246 248 247 
138 246 41 42 248 
139 31 247 249 30 
140 247 248 250 249 
141 248 42 43 250 
142 30 249 251 29 
143 249 250 252 251 
144 250 43 44 252 
145 29 251 10 11 
146 251 252 9 10 
147 252 44 8 9 
2 2 3 27
148 23 36 253 55 
149 36 35 254 253 
150 35 34 255 254 
151 34 33 256 255 
152 33 32 257 256 
153 32 31 258 257 
154 31 30 259 258 
155 30 29 260 259 
156 29 11 12 260 
157 55 253 261 56 
158 253 254 262 261 
159 254 255 263 262 
160 255 256 264 263 
161 256 257 265 264 
162 257 258 266 265 
163 258 259 267 266 
164 259 260 268 267 
165 260 12 13 268 
166 56 261 45 22 
167 261 262 46 45 
168 262 263 47 46 
169 263 264 48 47 
170 264 265 49 48 
171 265 266 50 49 
172 266 267 51 50 
173 267 268 52 51 
174 268 13 14 52 
2 5 3 306
175 8 44 269 7 
176 44 43 270 269 
177 43 42 271 270 
178 42 41 272 271 
179 41 40 273 272 
180 40 39 274 273 
181 39 38 275 274 
182 38 37 276 275 
183 37 21 99 276 
184 7 269 277 6 
185 269 270 278 277 
186 270 271 279 278 
187 271 272 280 279 
188 272 273 281 280 
189 273 274 282 281 
190 274 275 283 282 
191 275 276 284 283 
192 276 99 100 284 
193 6 277 285 5 
194 277 278 286 285 
195 278 279 287 286 
196 279 280 288 287 
197 280 281 289 288 
198 281 282 290 289 
199 282 283 291 290 
200 283 284 292 291 
201 284 100 101 292 
202 5 285 293 4 
203 285 286 294 293 
204 286 287 295 294 
205 287 288 296 295 
206 288 289 297 296 
207 289 290 298 297 
208 290 291 299 298 
209 291 292 300 299 
210 292 101 102 300 
211 4 293 301 3 
212 293 294 302 301 
213 294 295 303 302 
214 295 296 304 303 
215 296 297 305 304 
216 297 298 306 305 
217 298 299 307 306 
218 299 300 308 307 
219 300 102 103 308 
220 3 301 309 2 
221 301 302 310 309 
222 302 303 311 310 
223 303 304 312 311 
224 304 305 313 312 
225 305 306 314 313 
226 306 307 315 314 
227 307 308 316 315 
228 308 103 104 316 
229 2 309 317 1 
230 309 310 318 317 
231 310 311 319 318 
232 311 312 320 319 
233 312 313 321 320 
234 313 314 322 321 
235 314 315 323 322 
236 315 316 324 323 
237 316 104 105 324 
238 1 317 325 57 
239 317 318 326 325 
240 318 319 327 326 
241 319 320 328 327 
242 320 321 329 328 
243 321 322 330 329 
244 322 323 331 330 
245 323 324 332 331 
246 324 105 106 332 
247 57 325 333 58 
248 325 326 334 333 
249 326 327 335 334 
250 327 328 336 335 
251 328 329 337 336 
252 329 330 338 337 
253 330 331 339 338 
254 331 332 340 339 
255 332 106 107 340 
256 58 333 341 59 
257 333 334 342 341 
258 334 335 343 342 
259 335 336 344 343 
260 336 337 345 344 
261 337 338 346 345 
262 338 339 347 346 
263 339 340 348 347 
264 340 107 108 348 
265 59 341 349 60 
266 341 342 350 349 
267 342 343 351 350 
268 343 344 352 351 
269 344 345 353 352 
270 345 346 354 353 
271 346 347 355 354 
272 347 348 356 355 
273 348 108 109 356 
274 60 349 357 61 
275 349 350 358 357 
276 350 351 359 358 
277 351 352 360 359 
278 352 353 361 360 
279 353 354 362 361 
280 354 355 363 362 
281 355 356 364 363 
282 356 109 110 364 
283 61 357 365 62 
284 357 358 366 365 
285 358 359 367 366 
286 359 360 368 367 
287 360 361 369 368 
288 361 362 370 369 
289 362 363 371 370 
290 363 364 372 371 
291 364 110 111 372 
292 62 365 373 63 
293 365 366 374 373 
294 366 367 375 374 
295 367 368 376 375 
296 368 369 377 376 
297 369 370 378 377 
298 370 371 379 378 
299 371 372 380 379 
300 372 111 112 380 
301 63 373 381 64 
302 373 374 382 381 
303 374 375 383 382 
304 375 376 384 383 
305 376 377 385 384 
306 377 378 386 385 
307 378 379 387 386 
308 379 380 388 387 
309 380 112 113 388 
310 64 381 389 65 
311 381 382 390 389 
312 382 383 391 390 
313 383 384 392 391 
314 384 385 393 392 
315 385 386 394 393 
316 386 387 395 394 
317 387 388 396 395 
318 388 113 114 396 
319 65 389 397 66 
320 389 390 398 397 
321 390 391 399 398 
322 391 392 400 399 
323 392 393 401 400 
324 393 394 402 401 
325 394 395 403 402 
326 395 396 404 403 
327 396 114 115 404 
328 66 397 405 67 
329 397 398 406 405 
330 398 399 407 406 
331 399 400 408 407 
332 400 401 409 408 
333 401 402 410 409 
334 402 403 411 410 
335 403 404 412 411 
336 404 115 116 412 
337 67 405 413 68 
338 405 406 414 413 
339 406 407 415 414 
340 407 408 416 415 
341 408 409 417 416 
342 409 410 418 417 
343 410 411 419 418 
344 411 412 420 419 
345 412 116 117 420 
346 68 413 421 69 
347 413 414 422 421 
348 414 415 423 422 
349 415 416 424 423 
350 416 417 425 424 
351 417 418 426 425 
352 418 419 427 426 
353 419 420 428 427 
354 420 117 118 428 
355 69 421 429 70 
356 421 422 430 429 
357 422 423 431 430 
358 423 424 432 431 
359 424 425 433 432 
360 425 426 434 433 
361 426 427 435 434 
362 427 428 436 435 
363 428 118 119 436 
364 70 429 437 71 
365 429 430 438 437 
366 430 431 439 438 
367 431 432 440 439 
368 432 433 441 440 
369 433 434 442 441 
370 434 435 443 442 
371 435 436 444 443 
372 436 119 120 444 
373 71 437 445 72 
374 437 438 446 445 
375 438 439 447 446 
376 439 440 448 447 
377 440 441 449 448 
378 441 442 450 449 
379 442 443 451 450 
380 443 444 452 451 
381 444 120 121 452 
382 72 445 453 73 
383 445 446 454 453 
384 446 447 455 454 
385 447 448 456 455 
386 448 449 457 456 
387 449 450 458 457 
388 450 451 459 458 
389 451 452 460 459 
390 452 121 122 460 
391 73 453 461 74 
392 453 454 462 461 
393 454 455 463 462 
394 455 456 464 463 
395 456 457 465 464 
396 457 458 466 465 
397 458 459 467 466 
398 459 460 468 467 
399 460 122 123 468 
400 74 461 469 75 
401 461 462 470 469 
402 462 463 471 470 
403 463 464 472 471 
404 464 465 473 472 
405 465 466 474 473 
406 466 467 475 474 
407 467 468 476 475 
408 468 123 124 476 
409 75 469 477 76 
410 469 470 478 477 
411 470 471 479 478 
412 471 472 480 479 
413 472 473 481 480 
414 473 474 482 481 
415 474 475 483 482 
416 475 476 484 483 
417 476 124 125 484 
418 76 477 485 77 
419 477 478 486 485 
420 478 479 487 486 
421 479 480 488 487 
422 480 481 489 488 
423 481 482 490 489 
424 482 483 491 490 
425 483 484 492 491 
426 484 125 126 492 
427 77 485 493 78 
428 485 486 494 493 
429 486 487 495 494 
430 487 488 496 495 
431 488 489 497 496 
432 489 490 498 497 
433 490 491 499 498 
434 491 492 500 499 
435 492 126 127 500 
436 78 493 501 79 
437 493 494 502 501 
438 494 495 503 502 
439 495 496 504 503 
440 496 497 505 504 
441 497 498 506 505 
442 498 499 507 506 
443 499 500 508 507 
444 500 127 128 508 
445 79 501 509 80 
446 501 502 510 509 
447 502 503 511 510 
448 503 504 512 511 
449 504 505 513 512 
450 505 506 514 513 
451 506 507 515 514 
452 507 508 516 515 
453 508 128 129 516 
454 80 509 517 81 
455 509 510 518 517 
456 510 511 519 518 
457 511 512 520 519 
458 512 513 521 520 
459 513 514 522 521 
460 514 515 523 522 
461 515 516 524 523 
462 516 129 130 524 
463 81 517 525 82 
464 517 518 526 525 
465 518 519 527 526 
466 519 520 528 527 
467 520 521 529 528 
468 521 522 530 529 
469 522 523 531 530 
470 523 524 532 531 
471 524 130 131 532 
472 82 525 90 26 
473 525 526 89 90 
474 526 527 88 89 
475 527 528 87 88 
476 528 529 86 87 
477 529 530 85 86 
478 530 531 84 85 
479 531 532 83 84 
480 532 131 24 83 
2 6 3 306
481 14 15 533 52 
482 15 16 534 533 
483 16 17 535 534 
484 17 18 536 535 
485 18 19 537 536 
486 19 20 538 537 
487 20 1 539 538 
488 1 57 540 539 
489 57 58 541 540 
490 58 59 542 541 
491 59 60 543 542 
492 60 61 544 543 
493 61 62 545 544 
494 62 63 546 545 
495 63 64 547 546 
496 64 65 548 547 
497 65 66 549 548 
498 66 67 550 549 
499 67 68 551 550 
500 68 69 552 551 
501 69 70 553 552 
502 70 71 554 553 
503 71 72 555 554 
504 72 73 556 555 
505 73 74 557 556 
506 74 75 558 557 
507 75 76 559 558 
508 76 77 560 559 
509 77 78 561 560 
510 78 79 562 561 
511 79 80 563 562 
512 80 81 564 563 
513 81 82 565 564 
514 82 26 98 565 
515 52 533 566 51 
516 533 534 567 566 
517 534 535 568 567 
518 535 536 569 568 
519 536 537 570 569 
520 537 538 571 570 
521 538 539 572 571 
522 539 540 573 572 
523 540 541 574 573 
524 541 542 575 574 
525 542 543 576 575 
526 543 544 577 576 
527 544 545 578 577 
528 545 546 579 578 
529 546 547 580 579 
530 547 548 581 580 
531 548 549 582 581 
532 549 550 583 582 
533 550 551 584 583 
534 551 552 585 584 
535 552 553 586 585 
536 553 554 587 586 
537 554 555 588 587 
538 555 556 589 588 
539 556 557 590 589 
540 557 558 591 590 
541 558 559 592 591 
542 559 560 593 592 
543 560 561 594 593 
544 561 562 595 594 
545 562 563 596 595 
546 563 564 597 596 
547 564 565 598 597 
548 565 98 97 598 
549 51 566 599 50 
550 566 567 600 599 
551 567 568 601 600 
552 568 569 602 601 
553 569 570 603 602 
554 570 571 604 603 
555 571 572 605 604 
556 572 573 606 605 
557 573 574 607 606 
558 574 575 608 607 
559 575 576 609 608 
560 576 577 610 609 
561 577 578 611 610 
562 578 579 612 611 
563 579 580 613 612 
564 580 581 614 613 
565 581 582 615 614 
566 582 583 616 615 
567 583 584 617 616 
568 584 585 618 617 
569 585 586 619 618 
570 586 587 620 619 
571 587 588 621 620 
572 588 589 622 621 
573 589 590 623 622 
574 590 591 624 623 
575 591 592 625 624 
576 592 593 626 625 
577 593 594 627 626 
578 594 595 628 627 
579 595 596 629 628 
580 596 597 630 629 
581 597 598 631 630 
582 598 97 96 631 
583 50 599 632 49 
584 599 600 633 632 
585 600 601 634 633 
586 601 602 635 634 
587 602 603 636 635 
588 603 604 637 636 
589 604 605 638 637 
590 605 606 639 638 
591 606 607 640 639 
592 607 608 641 640 
593 608 609 642 641 
594 609 610 643 642 
595 610 611 644 643 
596 611 612 645 644 
597 612 613 646 645 
598 613 614 647 646 
599 614 615 648 647 
600 615 616 649 648 
601 616 617 650 649 
602 617 618 651 650 
603 618 619 652 651 
604 619 620 653 652 
605 620 621 654 653 
606 621 622 655 654 
607 622 623 656 655 
608 623 624 657 656 
609 624 625 658 657 
610 625 626 659 658 
611 626 627 660 659 
612 627 628 661 660 
613 628 629 662 661 
614 629 630 663 662 
615 630 631 664 663 
616 631 96 95 664 
617 49 632 665 48 
618 632 633 666 665 
619 633 634 667 666 
620 634 635 668 667 
621 635 636 669 668 
622 636 637 670 669 
623 637 638 671 670 
624 638 639 672 671 
625 639 640 673 672 
626 640 641 674 673 
627 641 642 675 674 
628 642 643 676 675 
629 643 644 677 676 
630 644 645 678 677 
631 645 646 679 678 
632 646 647 680 679 
633 647 648 681 680 
634 648 649 682 681 
635 649 650 683 682 
636 650 651 684 683 
637 651 652 685 684 
638 652 653 686 685 
639 653 654 687 686 
640 654 655 688 687 
641 655 656 689 688 
642 656 657 690 689 
643 657 658 691 690 
644 658 659 692 691 
645 659 660 693 692 
646 660 661 694 693 
647 661 662 695 694 
648 662 663 696 695 
649 663 664 697 696 
650 664 95 94 697 
651 48 665 698 47 
652 665 666 699 698 
653 666 667 700 699 
654 667 668 701 700 
655 668 669 702 701 
656 669 670 703 702 
657 670 671 704 703 
658 671 672 705 704 
659 672 673 706 705 
660 673 674 707 706 
661 674 675 708 707 
662 675 676 709 708 
663 676 677 710 709 
664 677 678 711 710 
665 678 679 712 711 
666 679 680 713 712 
667 680 681 714 713 
668 681 682 715 714 
669 682 683 716 715 
670 683 684 717 716 
671 684 685 718 717 
672 685 686 719 718 
673 686 687 720 719 
674 687 688 721 720 
675 688 689 722 721 
676 689 690 723 722 
677 690 691 724 723 
678 691 692 725 724 
679 692 693 726 725 
680 693 694 727 726 
681 694 695 728 727 
682 695 696 729 728 
683 696 697 730 729 
684 697 94 93 730 
685 47 698 731 46 
686 698 699 732 731 
687 699 700 733 732 
688 700 701 734 733 
689 701 702 735 734 
690 702 703 736 735 
691 703 704 737 736 
692 704 705 738 737 
693 705 706 739 738 
694 706 707 740 739 
695 707 708 741 740 
696 708 709 742 741 
697 709 710 743 742 
698 710 711 744 743 
699 711 712 745 744 
700 712 713 746 745 
701 713 714 747 746 
702 714 715 748 747 
703 715 716 749 748 
704 716 717 750 749 
705 717 718 751 750 
706 718 719 752 751 
707 719 720 753 752 
708 720 721 754 753 
709 721 722 755 754 
710 722 723 756 755 
711 723 724 757 756 
712 724 725 758 757 
713 725 726 759 758 
714 726 727 760 759 
715 727 728 761 760 
716 728 729 762 761 
717 729 730 763 762 
718 730 93 92 763 
719 46 731 764 45 
720 731 732 765 764 
721 732 733 766 765 
722 733 734 767 766 
723 734 735 768 767 
724 735 736 769 768 
725 736 737 770 769 
726 737 738 771 770 
727 738 739 772 771 
728 739 740 773 772 
729 740 741 774 773 
730 741 742 775 774 
731 742 743 776 775 
732 743 744 777 776 
733 744 745 778 777 
734 745 746 779 778 
735 746 747 780 779 
736 747 748 781 780 
737 748 749 782 781 
738 749 750 783 782 
739 750 751 784 783 
740 751 752 785 784 
741 752 753 786 785 
742 753 754 787 786 
743 754 755 788 787 
744 755 756 789 788 
745 756 757 790 789 
746 757 758 791 790 
747 758 759 792 791 
748 759 760 793 792 
749 760 761 794 793 
750 761 762 795 794 
751 762 763 796 795 
752 763 92 91 796 
753 45 764 132 22 
754 764 765 133 132 
755 765 766 134 133 
756 766 767 135 134 
757 767 768 136 135 
758 768 769 137 136 
759 769 770 138 137 
760 770 771 139 138 
761 771 772 140 139 
762 772 773 141 140 
763 773 774 142 141 
764 774 775 143 142 
765 775 776 144 143 
766 776 777 145 144 
767 777 778 146 145 
768 778 779 147 146 
769 779 780 148 147 
770 780 781 149 148 
771 781 782 150 149 
772 782 783 151 150 
773 783 784 152 151 
774 784 785 153 152 
775 785 786 154 153 
776 786 787 155 154 
777 787 788 156 155 
778 788 789 157 156 
779 789 790 158 157 
780 790 791 159 158 
781 791 792 160 159 
782 792 793 161 160 
783 793 794 162 161 
784 794 795 163 162 
785 795 796 164 163 
786 796 91 25 164 
2 7 3 263
787 993 888 948 807 
788 933 934 856 947 
789 808 1011 927 923 
790 932 933 837 973 
791 805 907 909 936 
792 856 934 935 977 
793 880 959 804 893 
794 889 835 836 946 
795 996 887 989 961 
796 797 903 879 951 
797 883 866 886 929 
798 943 891 907 805 
799 1019 865 862 894 
800 825 887 885 823 
801 844 843 846 902 
802 1023 900 965 811 
803 1006 201 202 822 
804 871 981 926 979 
805 913 987 916 1009 
806 900 975 869 965 
807 849 942 911 982 
808 1021 922 917 932 
809 954 876 974 952 
810 1024 820 166 165 
811 807 205 206 922 
812 1019 878 870 865 
813 1006 821 200 201 
814 894 862 861 863 
815 822 202 203 814 
816 816 213 214 915 
817 862 860 859 861 
818 857 905 974 873 
819 808 211 212 924 
820 811 925 169 168 
821 980 987 913 912 
822 210 923 920 209 
823 860 858 854 859 
824 875 880 893 829 
825 948 204 205 807 
826 939 1017 800 988 
827 865 864 860 862 
828 931 875 829 830 
829 857 873 874 855 
830 922 206 207 917 
831 830 832 835 931 
832 886 870 879 903 
833 917 207 208 803 
834 915 214 215 818 
835 905 857 867 868 
836 1023 811 168 167 
837 852 935 921 971 
838 822 814 824 823 
839 865 870 886 866 
840 829 893 989 827 
841 915 916 987 816 
842 924 212 213 816 
843 945 902 850 858 
844 844 902 945 1002 
845 923 210 211 808 
846 803 918 932 917 
847 930 895 896 897 
848 965 869 979 926 
849 855 874 889 946 
850 818 215 216 901 
851 946 836 838 839 
852 928 842 843 844 
853 814 948 888 824 
854 858 850 853 854 
855 925 799 170 169 
856 926 925 811 965 
857 902 846 848 850 
858 825 827 989 887 
859 818 940 817 941 
860 823 824 826 825 
861 855 851 867 857 
862 209 920 803 208 
863 895 930 939 899 
864 1023 167 166 906 
865 818 941 916 915 
866 943 805 173 172 
867 825 826 828 827 
868 944 929 868 867 
869 940 818 901 992 
870 827 828 830 829 
871 832 834 836 835 
872 894 863 896 895 
873 957 1005 880 875 
874 864 945 858 860 
875 932 918 934 933 
876 175 174 936 810 
877 174 173 805 936 
878 918 919 935 934 
879 176 175 810 937 
880 851 855 946 839 
881 166 820 1008 906 
882 177 176 937 817 
883 875 985 983 957 
884 942 914 912 911 
885 178 177 817 940 
886 199 200 821 986 
887 204 948 814 203 
888 961 962 809 996 
889 1008 897 896 898 
890 839 840 928 851 
891 935 919 920 921 
892 806 930 897 990 
893 865 866 883 864 
894 890 889 874 884 
895 874 873 974 876 
896 928 840 841 842 
897 172 171 960 943 
898 171 170 799 960 
899 913 1009 938 1003 
900 854 853 872 871 
901 216 1012 992 901 
902 918 803 920 919 
903 877 872 892 891 
904 846 847 849 848 
905 861 859 979 869 
906 910 908 982 911 
907 889 999 931 835 
908 891 892 908 907 
909 937 810 1020 938 
910 927 921 920 923 
911 911 912 913 910 
912 839 838 841 840 
913 891 943 960 877 
914 944 867 851 928 
915 907 908 910 909 
916 843 845 847 846 
917 838 836 834 837 
918 842 977 845 843 
919 982 963 848 849 
920 941 817 937 972 
921 1008 898 1023 906 
922 832 830 828 831 
923 842 841 856 977 
924 869 975 863 861 
925 850 848 963 853 
926 834 832 831 833 
927 933 947 838 837 
928 863 975 900 896 
929 874 876 1013 884 
930 871 979 859 854 
931 853 963 892 872 
932 1016 991 852 971 
933 121 797 951 122 
934 123 949 800 124 
935 120 950 797 121 
936 122 951 949 123 
937 119 812 950 120 
938 118 953 812 119 
939 117 798 953 118 
940 116 952 798 117 
941 806 1004 939 930 
942 115 954 952 116 
943 980 924 816 987 
944 925 926 981 799 
945 114 801 954 115 
946 904 1000 966 1014 
947 113 955 801 114 
948 872 877 981 871 
949 112 956 955 113 
950 870 878 1018 879 
951 833 973 837 834 
952 111 802 956 112 
953 1008 964 990 897 
954 838 947 856 841 
955 110 958 802 111 
956 823 885 1006 822 
957 973 882 1021 932 
958 895 899 1019 894 
959 109 959 958 110 
960 881 882 973 833 
961 217 994 1012 216 
962 939 1004 127 126 
963 939 126 125 1017 
964 108 804 959 109 
965 935 852 845 977 
966 799 981 877 960 
967 886 1014 868 929 
968 107 961 804 108 
969 106 962 961 107 
970 824 888 976 826 
971 963 982 908 892 
972 896 900 1023 898 
973 826 976 831 828 
974 833 831 976 881 
975 105 809 962 106 
976 927 1011 914 1016 
977 885 887 996 997 
978 888 993 881 976 
979 942 849 847 991 
980 104 967 809 105 
981 103 813 967 104 
982 128 964 815 129 
983 929 944 1002 883 
984 129 815 970 130 
985 952 974 995 798 
986 165 24 131 1010 
987 928 844 1002 944 
988 102 968 813 103 
989 864 883 1002 945 
990 179 178 940 992 
991 802 957 983 956 
992 959 880 1005 958 
993 992 1012 180 179 
994 953 966 1000 812 
995 845 852 991 847 
996 985 999 889 890 
997 909 1020 810 936 
998 101 819 968 102 
999 903 904 1014 886 
1000 956 983 984 955 
1001 974 905 966 995 
1002 893 804 961 989 
1003 100 978 819 101 
1004 798 995 966 953 
1005 949 1018 988 800 
1006 128 806 990 964 
1007 991 1016 914 942 
1008 913 1003 909 910 
1009 903 797 950 998 
1010 875 931 999 985 
1011 99 1015 978 100 
1012 128 127 1004 806 
1013 985 890 984 983 
1014 955 984 1013 801 
1015 997 1001 969 885 
1016 937 938 1009 972 
1017 958 1005 957 802 
1018 130 970 1010 131 
1019 996 809 967 997 
1020 124 800 1017 125 
1021 968 969 1001 813 
1022 812 1000 998 950 
1023 951 879 1018 949 
1024 868 1014 966 905 
1025 876 954 801 1013 
1026 815 964 1008 1007 
1027 912 914 1011 980 
1028 890 884 1013 984 
1029 941 972 1009 916 
1030 921 927 1016 971 
1031 938 1020 909 1003 
1032 885 969 821 1006 
1033 813 1001 997 967 
1034 924 980 1011 808 
1035 903 998 1000 904 
1036 807 922 1021 993 
1037 881 993 1021 882 
1038 181 180 1012 994 
1039 978 986 1022 819 
1040 939 988 1019 899 
1041 1018 878 1019 988 
1042 969 968 819 1022 
1043 815 1007 1024 970 
1044 969 1022 986 821 
1045 1008 820 1024 1007 
1046 970 1024 165 1010 
1047 1015 99 21 199 
1048 994 217 27 181 
1049 1015 199 986 978 
2 8 3 263
1050 1218 1035 1175 1116 
1051 1137 1135 1033 1163 
1052 1174 1084 1161 1160 
1053 1203 1200 1026 1180 
1054 1221 1105 1053 1115 
1055 1174 1160 1195 1064 
1056 1170 1142 1169 1193 
1057 1189 1188 1105 1221 
1058 1173 1062 1224 1117 
1059 1060 1061 1064 1195 
1060 1025 1178 1107 1131 
1061 1171 1033 1135 1119 
1062 1243 1122 1089 1092 
1063 1050 1113 1115 1051 
1064 1159 1145 1148 1248 
1065 1250 1039 1192 1128 
1066 1141 1233 1144 1214 
1067 1162 1193 1169 1154 
1068 1231 1050 221 220 
1069 1035 1148 225 224 
1070 1098 1206 1152 1208 
1071 1128 1192 1096 1201 
1072 1251 182 183 1048 
1073 1100 1085 1079 1083 
1074 1115 1053 1052 1051 
1075 1243 1092 1097 1106 
1076 1148 1145 226 225 
1077 1231 220 219 1049 
1078 1122 1090 1088 1089 
1079 1050 1042 222 221 
1080 1044 1143 233 232 
1081 1153 1150 229 228 
1082 1089 1088 1087 1086 
1083 1036 1149 231 230 
1084 1039 185 186 1151 
1085 1207 1140 1141 1214 
1086 1078 1086 1087 1082 
1087 1102 1056 1121 1108 
1088 1153 1154 1169 1150 
1089 1175 1035 224 223 
1090 1166 1215 1028 1241 
1091 1062 1173 1066 1063 
1092 1158 1057 1056 1102 
1093 1071 1130 1078 1074 
1094 1121 1186 1185 1108 
1095 1103 1100 1083 1101 
1096 1114 1131 1107 1097 
1097 1145 1031 227 226 
1098 1143 1046 234 233 
1099 1250 184 185 1039 
1100 1089 1091 1093 1092 
1101 1050 1051 1052 1042 
1102 1092 1093 1114 1097 
1103 1083 1079 1067 1066 
1104 1056 1055 1252 1121 
1105 1031 1145 1159 1146 
1106 1143 1044 1214 1144 
1107 1149 1044 232 231 
1108 1172 1086 1078 1130 
1109 1089 1086 1172 1091 
1110 1072 1227 1172 1130 
1111 1150 1036 230 229 
1112 1157 1125 1124 1123 
1113 1192 1152 1206 1096 
1114 1046 1129 235 234 
1115 1130 1071 1069 1072 
1116 1042 1052 1116 1175 
1117 1151 186 187 1027 
1118 1152 1192 1039 1151 
1119 1085 1100 1200 1133 
1120 1162 1154 1153 1147 
1121 1146 1159 1195 1160 
1122 1053 1105 1252 1055 
1123 1055 1054 1052 1053 
1124 1181 1179 1249 1103 
1125 1036 1150 1169 1244 
1126 1095 1094 1079 1085 
1127 1153 1031 1146 1147 
1128 228 227 1031 1153 
1129 1156 1111 1155 1094 
1130 1123 1127 1166 1157 
1131 1250 1134 183 184 
1132 1046 1168 1045 1167 
1133 1046 1143 1144 1168 
1134 1171 189 190 1033 
1135 1163 191 192 1038 
1136 1056 1057 1054 1055 
1137 1186 1121 1252 1032 
1138 1094 1155 1067 1079 
1139 1059 1062 1063 1061 
1140 1204 1162 1147 1161 
1141 1164 193 194 1045 
1142 1082 1081 1076 1078 
1143 1063 1066 1067 1065 
1144 1122 1123 1124 1090 
1145 1184 1102 1108 1230 
1146 1147 1146 1160 1161 
1147 1103 1249 1200 1100 
1148 1167 1217 1129 1046 
1149 1101 1083 1066 1173 
1150 183 1134 1235 1048 
1151 1209 1139 1142 1170 
1152 1102 1184 1210 1212 
1153 223 222 1042 1175 
1154 1222 1037 1189 1221 
1155 1235 1126 1124 1125 
1156 1034 1216 1125 1157 
1157 1156 1093 1091 1111 
1158 1072 1069 1067 1155 
1159 1078 1076 1075 1074 
1160 1173 1117 1112 1101 
1161 1217 1238 235 1129 
1162 191 1163 1033 190 
1163 189 1171 1187 188 
1164 1158 1059 1058 1057 
1165 188 1187 1027 187 
1166 193 1164 1038 192 
1167 1164 1165 1245 1038 
1168 1082 1098 1099 1081 
1169 1141 1228 1165 1233 
1170 1104 1119 1120 1099 
1171 195 1167 1045 194 
1172 1088 1096 1206 1087 
1173 1138 1139 1209 1136 
1174 1168 1194 1164 1045 
1175 1059 1158 1224 1062 
1176 1119 1135 1136 1120 
1177 1139 1138 1141 1140 
1178 1069 1068 1065 1067 
1179 1119 1104 1187 1171 
1180 1135 1137 1138 1136 
1181 1071 1074 1075 1073 
1182 1170 1077 1190 1209 
1183 1065 1064 1061 1063 
1184 1071 1070 1068 1069 
1185 1235 1134 1250 1126 
1186 1096 1088 1090 1201 
1187 1077 1076 1081 1190 
1188 1061 1060 1058 1059 
1189 1090 1124 1128 1201 
1190 1195 1159 1248 1110 
1191 1101 1112 1239 1103 
1192 1098 1082 1087 1206 
1193 1064 1065 1068 1174 
1194 1081 1099 1120 1190 
1195 1195 1110 1109 1060 
1196 154 155 1178 1025 
1197 156 157 1028 1176 
1198 153 154 1025 1177 
1199 155 156 1176 1178 
1200 152 153 1177 1040 
1201 151 152 1040 1180 
1202 150 151 1180 1026 
1203 149 150 1026 1179 
1204 1034 1157 1166 1229 
1205 148 149 1179 1181 
1206 1207 1214 1044 1149 
1207 1151 1027 1208 1152 
1208 147 148 1181 1029 
1209 146 147 1029 1182 
1210 1099 1098 1208 1104 
1211 145 146 1182 1183 
1212 1097 1107 1242 1106 
1213 144 145 1183 1030 
1214 1093 1156 1246 1114 
1215 1235 1125 1216 1191 
1216 1070 1084 1174 1068 
1217 143 144 1030 1185 
1218 1085 1133 1234 1095 
1219 1123 1122 1243 1127 
1220 142 143 1185 1186 
1221 236 235 1238 1220 
1222 1139 1140 1207 1142 
1223 1166 159 160 1229 
1224 1166 1241 158 159 
1225 141 142 1186 1032 
1226 1162 1204 1073 1080 
1227 1027 1187 1104 1208 
1228 1094 1095 1246 1156 
1229 140 141 1032 1188 
1230 139 140 1188 1189 
1231 1161 1084 1070 1204 
1232 1071 1073 1204 1070 
1233 1052 1054 1202 1116 
1234 1190 1120 1136 1209 
1235 1124 1126 1250 1128 
1236 1054 1057 1058 1202 
1237 1060 1109 1202 1058 
1238 138 139 1189 1037 
1239 1132 1234 1203 1225 
1240 1113 1222 1221 1115 
1241 1116 1202 1109 1218 
1242 137 138 1037 1196 
1243 1076 1077 1219 1075 
1244 136 137 1196 1041 
1245 161 162 1043 1191 
1246 162 163 1199 1043 
1247 1137 1163 1038 1245 
1248 1210 1118 1224 1212 
1249 182 1237 164 25 
1250 196 1217 1167 195 
1251 1155 1111 1227 1072 
1252 135 136 1041 1197 
1253 1091 1172 1227 1111 
1254 1200 1249 1179 1026 
1255 1162 1080 1219 1193 
1256 1182 1210 1184 1183 
1257 1217 196 197 1238 
1258 1180 1040 1225 1203 
1259 1112 1117 1224 1118 
1260 1077 1170 1193 1219 
1261 134 135 1197 1047 
1262 1131 1114 1246 1132 
1263 1073 1075 1219 1080 
1264 1105 1188 1032 1252 
1265 1108 1185 1030 1230 
1266 133 134 1047 1205 
1267 1176 1028 1215 1242 
1268 161 1191 1216 1034 
1269 1141 1138 1137 1228 
1270 1131 1223 1177 1025 
1271 1164 1194 1233 1165 
1272 1102 1212 1224 1158 
1273 1110 1248 1218 1109 
1274 132 133 1205 1240 
1275 161 1034 1229 160 
1276 1182 1211 1118 1210 
1277 1182 1029 1239 1211 
1278 1222 1113 1198 1226 
1279 1183 1184 1230 1030 
1280 163 164 1237 1199 
1281 157 158 1241 1028 
1282 1168 1144 1233 1194 
1283 1040 1177 1223 1225 
1284 1165 1228 1137 1245 
1285 1178 1176 1242 1107 
1286 1050 1231 1198 1113 
1287 1103 1239 1029 1181 
1288 1198 1041 1196 1226 
1289 1043 1232 1235 1191 
1290 1118 1211 1239 1112 
1291 1148 1035 1218 1248 
1292 1200 1203 1234 1133 
1293 1169 1142 1207 1244 
1294 1231 1049 1247 1198 
1295 1037 1222 1226 1196 
1296 1041 1198 1247 1197 
1297 1149 1036 1244 1207 
1298 1131 1132 1225 1223 
1299 198 1220 1238 197 
1300 1132 1246 1095 1234 
1301 218 1236 1213 219 
1302 1166 1127 1243 1215 
1303 1242 1215 1243 1106 
1304 1213 1047 1197 1247 
1305 1047 1213 1236 1205 
1306 1043 1199 1251 1232 
1307 1205 1236 218 1240 
1308 219 1213 1247 1049 
1309 1235 1232 1251 1048 
1310 1199 1237 182 1251 
1311 1240 218 22 132 
1312 1220 198 28 236 
$EndElements
