$MeshFormat
4.1 0 8
$EndMeshFormat
$Entities
209 214 7 0
1 1 -1.66533e-17 0 0 
3 0.998993 0.000146223 0 0 
4 0.997736 0.000328595 0 0 
5 0.995977 0.00058316 0 0 
6 0.993719 0.0009091700000000001 0 0 
7 0.990964 0.00130567 0 0 
8 0.987715 0.00177151 0 0 
9 0.983974 0.00230534 0 0 
10 0.979746 0.00290565 0 0 
11 0.975036 0.00357073 0 0 
12 0.969846 0.00429874 0 0 
13 0.964184 0.00508767 0 0 
14 0.958054 0.00593537 0 0 
15 0.9514629999999999 0.00683958 0 0 
16 0.944418 0.00779793 0 0 
17 0.936925 0.00880793 0 0 
18 0.928992 0.009867030000000001 0 0 
19 0.920627 0.0109726 0 0 
20 0.911838 0.0121219 0 0 
21 0.902635 0.0133121 0 0 
22 0.893027 0.0145406 0 0 
23 0.883022 0.0158044 0 0 
24 0.872632 0.0171006 0 0 
25 0.861867 0.0184265 0 0 
26 0.850737 0.0197789 0 0 
27 0.839255 0.0211551 0 0 
28 0.82743 0.0225521 0 0 
29 0.815276 0.0239669 0 0 
30 0.802805 0.0253966 0 0 
31 0.790028 0.0268382 0 0 
32 0.77696 0.0282887 0 0 
33 0.763613 0.0297451 0 0 
34 0.75 0.0312044 0 0 
35 0.736136 0.0326635 0 0 
36 0.722033 0.0341194 0 0 
37 0.707708 0.035569 0 0 
38 0.693173 0.0370091 0 0 
39 0.678443 0.0384366 0 0 
40 0.663534 0.0398482 0 0 
41 0.64846 0.0412407 0 0 
42 0.633237 0.0426107 0 0 
43 0.617879 0.0439549 0 0 
44 0.602403 0.0452698 0 0 
45 0.586824 0.0465521 0 0 
46 0.571157 0.0477982 0 0 
47 0.555419 0.0490045 0 0 
48 0.539625 0.0501675 0 0 
49 0.523791 0.0512835 0 0 
50 0.507933 0.0523489 0 0 
51 0.492067 0.0533601 0 0 
52 0.476209 0.0543134 0 0 
53 0.460375 0.0552053 0 0 
54 0.444581 0.0560321 0 0 
55 0.428843 0.0567903 0 0 
56 0.413176 0.0574765 0 0 
57 0.397597 0.0580873 0 0 
58 0.382121 0.0586193 0 0 
59 0.366763 0.0590696 0 0 
60 0.35154 0.059435 0 0 
61 0.336466 0.0597128 0 0 
62 0.321557 0.0599003 0 0 
63 0.306827 0.0599951 0 0 
64 0.292292 0.0599951 0 0 
65 0.277967 0.0598982 0 0 
66 0.263864 0.0597028 0 0 
67 0.25 0.0594075 0 0 
68 0.236387 0.0590111 0 0 
69 0.22304 0.0585128 0 0 
70 0.209972 0.0579121 0 0 
100 0 0 0 0 
101 0.000251729 -0.00280732 0 0 
102 0.00100666 -0.0055757 0 0 
103 0.00226404 -0.008304000000000001 0 0 
104 0.00402259 -0.0109908 0 0 
105 0.00628056 -0.0136345 0 0 
106 0.009035649999999999 -0.0162331 0 0 
107 0.0122851 -0.0187844 0 0 
108 0.0160256 -0.0212862 0 0 
109 0.0202535 -0.0237357 0 0 
110 0.0249644 -0.0261302 0 0 
111 0.0301537 -0.0284669 0 0 
112 0.035816 -0.0307426 0 0 
113 0.0419458 -0.0329544 0 0 
114 0.0485367 -0.0350989 0 0 
115 0.0555823 -0.037173 0 0 
116 0.0630753 -0.0391735 0 0 
117 0.0710083 -0.0410972 0 0 
118 0.0793732 -0.042941 0 0 
119 0.0881617 -0.0447018 0 0 
120 0.0973649 -0.0463768 0 0 
121 0.106973 -0.0479633 0 0 
122 0.116978 -0.0494586 0 0 
123 0.127368 -0.0508605 0 0 
124 0.138133 -0.0521668 0 0 
125 0.149263 -0.0533756 0 0 
126 0.160745 -0.0544854 0 0 
127 0.17257 -0.0554948 0 0 
128 0.184724 -0.0564028 0 0 
129 0.197195 -0.0572087 0 0 
130 0.209972 -0.0579121 0 0 
131 0.22304 -0.0585128 0 0 
132 0.236387 -0.0590111 0 0 
133 0.25 -0.0594075 0 0 
134 0.263864 -0.0597028 0 0 
135 0.277967 -0.0598982 0 0 
136 0.292292 -0.0599951 0 0 
137 0.306827 -0.0599951 0 0 
138 0.321557 -0.0599003 0 0 
139 0.336466 -0.0597128 0 0 
140 0.35154 -0.059435 0 0 
141 0.366763 -0.0590696 0 0 
142 0.382121 -0.0586193 0 0 
143 0.397597 -0.0580873 0 0 
144 0.413176 -0.0574765 0 0 
145 0.428843 -0.0567903 0 0 
146 0.444581 -0.0560321 0 0 
147 0.460375 -0.0552053 0 0 
148 0.476209 -0.0543134 0 0 
149 0.492067 -0.0533601 0 0 
150 0.507933 -0.0523489 0 0 
151 0.523791 -0.0512835 0 0 
152 0.539625 -0.0501675 0 0 
153 0.555419 -0.0490045 0 0 
154 0.571157 -0.0477982 0 0 
155 0.586824 -0.0465521 0 0 
156 0.602403 -0.0452698 0 0 
157 0.617879 -0.0439549 0 0 
158 0.633237 -0.0426107 0 0 
159 0.64846 -0.0412407 0 0 
160 0.663534 -0.0398482 0 0 
161 0.678443 -0.0384366 0 0 
162 0.693173 -0.0370091 0 0 
163 0.707708 -0.035569 0 0 
164 0.722033 -0.0341194 0 0 
165 0.736136 -0.0326635 0 0 
166 0.75 -0.0312044 0 0 
167 0.763613 -0.0297451 0 0 
168 0.77696 -0.0282887 0 0 
169 0.790028 -0.0268382 0 0 
170 0.802805 -0.0253966 0 0 
171 0.815276 -0.0239669 0 0 
172 0.82743 -0.0225521 0 0 
173 0.839255 -0.0211551 0 0 
174 0.850737 -0.0197789 0 0 
175 0.861867 -0.0184265 0 0 
176 0.872632 -0.0171006 0 0 
177 0.883022 -0.0158044 0 0 
178 0.893027 -0.0145406 0 0 
179 0.902635 -0.0133121 0 0 
180 0.911838 -0.0121219 0 0 
181 0.920627 -0.0109726 0 0 
182 0.928992 -0.009867030000000001 0 0 
183 0.936925 -0.00880793 0 0 
184 0.944418 -0.00779793 0 0 
185 0.9514629999999999 -0.00683958 0 0 
186 0.958054 -0.00593537 0 0 
187 0.964184 -0.00508767 0 0 
188 0.969846 -0.00429874 0 0 
189 0.975036 -0.00357073 0 0 
190 0.979746 -0.00290565 0 0 
191 0.983974 -0.00230534 0 0 
192 0.987715 -0.00177151 0 0 
193 0.990964 -0.00130567 0 0 
194 0.993719 -0.0009091700000000001 0 0 
195 0.995977 -0.00058316 0 0 
196 0.997736 -0.000328595 0 0 
197 0.998993 -0.000146223 0 0 
200 0 4 0 0 
201 0 -4 0 0 
202 -2.7 0 0 0 
203 0.3 0 0 0 
210 6 4 0 0 
211 6 -4 0 0 
212 6 0 0 0 
230 6 12 0 0 
231 6 -12 0 0 
232 -3 -12.1 0 0 
233 -3 12.1 0 0 
234 6.3 -12.1 0 0 
235 6.3 12.1 0 0 
236 0.197195 0.0572087 0 0 
237 0.184724 0.0564028 0 0 
238 0.17257 0.0554948 0 0 
239 0.160745 0.0544854 0 0 
240 0.149263 0.0533756 0 0 
241 0.138133 0.0521668 0 0 
242 0.127368 0.0508605 0 0 
243 0.116978 0.0494586 0 0 
244 0.106973 0.0479633 0 0 
245 0.0973649 0.0463768 0 0 
246 0.0881617 0.0447018 0 0 
247 0.0793732 0.042941 0 0 
248 0.0710083 0.0410972 0 0 
249 0.0630753 0.0391735 0 0 
250 0.0555823 0.037173 0 0 
251 0.0485367 0.0350989 0 0 
252 0.0419458 0.0329544 0 0 
253 0.035816 0.0307426 0 0 
254 0.0301537 0.0284669 0 0 
255 0.0249644 0.0261302 0 0 
256 0.0202535 0.0237357 0 0 
257 0.0160256 0.0212862 0 0 
258 0.0122851 0.0187844 0 0 
259 0.009035649999999999 0.0162331 0 0 
260 0.00628056 0.0136345 0 0 
261 0.00402259 0.0109908 0 0 
262 0.00226404 0.008304000000000001 0 0 
263 0.00100666 0.0055757 0 0 
264 0.000251729 0.00280732 0 0 
1 0.9989929000000001 -1.000000000166585e-07 -1e-07 1.0000001 0.000146323 1e-07 1 303 2 1 -3 
3 0.9977359 0.000146123 -1e-07 0.9989931 0.000328695 1e-07 1 303 2 3 -4 
4 0.9959769000000001 0.000328495 -1e-07 0.9977360999999999 0.0005832599999999999 1e-07 1 303 2 4 -5 
5 0.9937189000000001 0.00058306 -1e-07 0.9959770999999999 0.00090927 1e-07 1 303 2 5 -6 
6 0.9909639 0.0009090700000000001 -1e-07 0.9937191 0.00130577 1e-07 1 303 2 6 -7 
7 0.9877149000000001 0.00130557 -1e-07 0.9909640999999999 0.00177161 1e-07 1 303 2 7 -8 
8 0.9839739000000001 0.00177141 -1e-07 0.9877151 0.00230544 1e-07 1 303 2 8 -9 
9 0.9797459000000001 0.00230524 -1e-07 0.9839741 0.00290575 1e-07 1 303 2 9 -10 
10 0.9750359000000001 0.00290555 -1e-07 0.9797461 0.00357083 1e-07 1 303 2 10 -11 
11 0.9698459 0.00357063 -1e-07 0.9750361 0.00429884 1e-07 1 303 2 11 -12 
12 0.9641839000000001 0.004298639999999999 -1e-07 0.9698460999999999 0.00508777 1e-07 1 303 2 12 -13 
13 0.9580539 0.00508757 -1e-07 0.9641841 0.00593547 1e-07 1 303 2 13 -14 
14 0.9514629 0.005935269999999999 -1e-07 0.9580540999999999 0.00683968 1e-07 1 303 2 14 -15 
15 0.9444179 0.006839479999999999 -1e-07 0.9514630999999999 0.00779803 1e-07 1 303 2 15 -16 
16 0.9369249000000001 0.00779783 -1e-07 0.9444180999999999 0.00880803 1e-07 1 303 2 16 -17 
17 0.9289919000000001 0.008807830000000001 -1e-07 0.9369251 0.00986713 1e-07 1 303 2 17 -18 
18 0.9206269 0.009866930000000001 -1e-07 0.9289921 0.0109727 1e-07 1 303 2 18 -19 
19 0.9118379000000001 0.0109725 -1e-07 0.9206270999999999 0.012122 1e-07 1 303 2 19 -20 
20 0.9026349 0.0121218 -1e-07 0.9118381 0.0133122 1e-07 1 303 2 20 -21 
21 0.8930269000000001 0.013312 -1e-07 0.9026350999999999 0.0145407 1e-07 1 303 2 21 -22 
22 0.8830219 0.0145405 -1e-07 0.8930271 0.0158045 1e-07 1 303 2 22 -23 
23 0.8726319 0.0158043 -1e-07 0.8830220999999999 0.0171007 1e-07 1 303 2 23 -24 
24 0.8618669000000001 0.0171005 -1e-07 0.8726320999999999 0.0184266 1e-07 1 303 2 24 -25 
25 0.8507369 0.0184264 -1e-07 0.8618671 0.019779 1e-07 1 303 2 25 -26 
26 0.8392549 0.0197788 -1e-07 0.8507370999999999 0.0211552 1e-07 1 303 2 26 -27 
27 0.8274299000000001 0.021155 -1e-07 0.8392550999999999 0.0225522 1e-07 1 303 2 27 -28 
28 0.8152759000000001 0.022552 -1e-07 0.8274300999999999 0.023967 1e-07 1 303 2 28 -29 
29 0.8028049 0.0239668 -1e-07 0.8152760999999999 0.0253967 1e-07 1 303 2 29 -30 
30 0.7900279 0.0253965 -1e-07 0.8028050999999999 0.0268383 1e-07 1 303 2 30 -31 
31 0.7769599 0.0268381 -1e-07 0.7900280999999999 0.0282888 1e-07 1 303 2 31 -32 
32 0.7636129 0.0282886 -1e-07 0.7769600999999999 0.0297452 1e-07 1 303 2 32 -33 
33 0.7499999000000001 0.029745 -1e-07 0.7636130999999999 0.0312045 1e-07 1 303 2 33 -34 
34 0.7361359000000001 0.0312043 -1e-07 0.7500000999999999 0.0326636 1e-07 1 303 2 34 -35 
35 0.7220329000000001 0.0326634 -1e-07 0.7361361 0.0341195 1e-07 1 303 2 35 -36 
36 0.7077079000000001 0.0341193 -1e-07 0.7220331 0.03556910000000001 1e-07 1 303 2 36 -37 
37 0.6931729000000001 0.0355689 -1e-07 0.7077081 0.03700920000000001 1e-07 1 303 2 37 -38 
38 0.6784429000000001 0.037009 -1e-07 0.6931731 0.0384367 1e-07 1 303 2 38 -39 
39 0.6635339 0.0384365 -1e-07 0.6784431 0.0398483 1e-07 1 303 2 39 -40 
40 0.6484599000000001 0.0398481 -1e-07 0.6635340999999999 0.0412408 1e-07 1 303 2 40 -41 
41 0.6332369000000001 0.0412406 -1e-07 0.6484601 0.0426108 1e-07 1 303 2 41 -42 
42 0.6178789 0.0426106 -1e-07 0.6332371 0.043955 1e-07 1 303 2 42 -43 
43 0.6024029000000001 0.0439548 -1e-07 0.6178790999999999 0.0452699 1e-07 1 303 2 43 -44 
44 0.5868239000000001 0.0452697 -1e-07 0.6024031 0.0465522 1e-07 1 303 2 44 -45 
45 0.5711569000000001 0.046552 -1e-07 0.5868241 0.0477983 1e-07 1 303 2 45 -46 
46 0.5554189 0.0477981 -1e-07 0.5711571 0.0490046 1e-07 1 303 2 46 -47 
47 0.5396249000000001 0.0490044 -1e-07 0.5554190999999999 0.0501676 1e-07 1 303 2 47 -48 
48 0.5237909000000001 0.05016739999999999 -1e-07 0.5396251 0.05128360000000001 1e-07 1 303 2 48 -49 
49 0.5079329 0.0512834 -1e-07 0.5237911 0.052349 1e-07 1 303 2 49 -50 
50 0.4920669 0.05234879999999999 -1e-07 0.5079330999999999 0.0533602 1e-07 1 303 2 50 -51 
51 0.4762089 0.05336 -1e-07 0.4920671 0.0543135 1e-07 1 303 2 51 -52 
52 0.4603749 0.05431329999999999 -1e-07 0.4762091 0.0552054 1e-07 1 303 2 52 -53 
53 0.4445809 0.0552052 -1e-07 0.4603751 0.0560322 1e-07 1 303 2 53 -54 
54 0.4288429 0.056032 -1e-07 0.4445811 0.0567904 1e-07 1 303 2 54 -55 
55 0.4131759 0.0567902 -1e-07 0.4288431 0.0574766 1e-07 1 303 2 55 -56 
56 0.3975969 0.0574764 -1e-07 0.4131761 0.0580874 1e-07 1 303 2 56 -57 
57 0.3821209 0.0580872 -1e-07 0.3975971 0.0586194 1e-07 1 303 2 57 -58 
58 0.3667629 0.0586192 -1e-07 0.3821211 0.0590697 1e-07 1 303 2 58 -59 
59 0.3515399 0.0590695 -1e-07 0.3667631 0.0594351 1e-07 1 303 2 59 -60 
60 0.3364659 0.0594349 -1e-07 0.3515401 0.05971290000000001 1e-07 1 303 2 60 -61 
61 0.3215569 0.0597127 -1e-07 0.3364661 0.0599004 1e-07 1 303 2 61 -62 
62 0.3068269 0.05990019999999999 -1e-07 0.3215571 0.05999520000000001 1e-07 1 303 2 62 -63 
63 0.2922919 0.059995 -1e-07 0.3068271 0.05999520000000001 1e-07 1 303 2 63 -64 
64 0.2779669 0.0598981 -1e-07 0.2922921 0.05999520000000001 1e-07 1 303 2 64 -65 
65 0.2638639 0.0597027 -1e-07 0.2779671 0.0598983 1e-07 1 303 2 65 -66 
66 0.2499999 0.0594074 -1e-07 0.2638641 0.0597029 1e-07 1 303 2 66 -67 
67 0.2363869 0.05901099999999999 -1e-07 0.2500001 0.0594076 1e-07 1 303 2 67 -68 
68 0.2230399 0.05851269999999999 -1e-07 0.2363871 0.0590112 1e-07 1 303 2 68 -69 
69 0.2099719 0.057912 -1e-07 0.2230401 0.0585129 1e-07 1 303 2 69 -70 
100 -1.000000000000024e-07 -0.00280742 -1e-07 0.000251829 1.000000000000566e-07 1e-07 1 303 2 100 -101 
101 0.000251629 -0.005575800000000001 -1e-07 0.00100676 -0.00280722 1e-07 1 303 2 101 -102 
102 0.00100656 -0.0083041 -1e-07 0.00226414 -0.0055756 1e-07 1 303 2 102 -103 
103 0.00226394 -0.0109909 -1e-07 0.004022690000000001 -0.008303900000000001 1e-07 1 303 2 103 -104 
104 0.00402249 -0.0136346 -1e-07 0.00628066 -0.0109907 1e-07 1 303 2 104 -105 
105 0.00628046 -0.0162332 -1e-07 0.009035749999999999 -0.0136344 1e-07 1 303 2 105 -106 
106 0.00903555 -0.0187845 -1e-07 0.0122852 -0.016233 1e-07 1 303 2 106 -107 
107 0.012285 -0.0212863 -1e-07 0.0160257 -0.0187843 1e-07 1 303 2 107 -108 
108 0.0160255 -0.0237358 -1e-07 0.0202536 -0.0212861 1e-07 1 303 2 108 -109 
109 0.0202534 -0.0261303 -1e-07 0.0249645 -0.0237356 1e-07 1 303 2 109 -110 
110 0.0249643 -0.028467 -1e-07 0.0301538 -0.0261301 1e-07 1 303 2 110 -111 
111 0.0301536 -0.0307427 -1e-07 0.0358161 -0.0284668 1e-07 1 303 2 111 -112 
112 0.0358159 -0.0329545 -1e-07 0.0419459 -0.0307425 1e-07 1 303 2 112 -113 
113 0.0419457 -0.03509900000000001 -1e-07 0.0485368 -0.0329543 1e-07 1 303 2 113 -114 
114 0.0485366 -0.0371731 -1e-07 0.0555824 -0.0350988 1e-07 1 303 2 114 -115 
115 0.0555822 -0.0391736 -1e-07 0.0630754 -0.03717289999999999 1e-07 1 303 2 115 -116 
116 0.0630752 -0.0410973 -1e-07 0.0710084 -0.0391734 1e-07 1 303 2 116 -117 
117 0.07100819999999999 -0.0429411 -1e-07 0.07937330000000001 -0.0410971 1e-07 1 303 2 117 -118 
118 0.0793731 -0.0447019 -1e-07 0.0881618 -0.0429409 1e-07 1 303 2 118 -119 
119 0.08816159999999999 -0.04637690000000001 -1e-07 0.09736500000000001 -0.0447017 1e-07 1 303 2 119 -120 
120 0.0973648 -0.0479634 -1e-07 0.1069731 -0.0463767 1e-07 1 303 2 120 -121 
121 0.1069729 -0.0494587 -1e-07 0.1169781 -0.0479632 1e-07 1 303 2 121 -122 
122 0.1169779 -0.05086060000000001 -1e-07 0.1273681 -0.0494585 1e-07 1 303 2 122 -123 
123 0.1273679 -0.0521669 -1e-07 0.1381331 -0.0508604 1e-07 1 303 2 123 -124 
124 0.1381329 -0.05337570000000001 -1e-07 0.1492631 -0.0521667 1e-07 1 303 2 124 -125 
125 0.1492629 -0.05448550000000001 -1e-07 0.1607451 -0.0533755 1e-07 1 303 2 125 -126 
126 0.1607449 -0.0554949 -1e-07 0.1725701 -0.0544853 1e-07 1 303 2 126 -127 
127 0.1725699 -0.05640290000000001 -1e-07 0.1847241 -0.05549469999999999 1e-07 1 303 2 127 -128 
128 0.1847239 -0.0572088 -1e-07 0.1971951 -0.0564027 1e-07 1 303 2 128 -129 
129 0.1971949 -0.0579122 -1e-07 0.2099721 -0.0572086 1e-07 1 303 2 129 -130 
130 0.2099719 -0.0585129 -1e-07 0.2230401 -0.057912 1e-07 1 303 2 130 -131 
131 0.2230399 -0.0590112 -1e-07 0.2363871 -0.05851269999999999 1e-07 1 303 2 131 -132 
132 0.2363869 -0.0594076 -1e-07 0.2500001 -0.05901099999999999 1e-07 1 303 2 132 -133 
133 0.2499999 -0.0597029 -1e-07 0.2638641 -0.0594074 1e-07 1 303 2 133 -134 
134 0.2638639 -0.0598983 -1e-07 0.2779671 -0.0597027 1e-07 1 303 2 134 -135 
135 0.2779669 -0.05999520000000001 -1e-07 0.2922921 -0.0598981 1e-07 1 303 2 135 -136 
136 0.2922919 -0.05999520000000001 -1e-07 0.3068271 -0.059995 1e-07 1 303 2 136 -137 
137 0.3068269 -0.05999520000000001 -1e-07 0.3215571 -0.05990019999999999 1e-07 1 303 2 137 -138 
138 0.3215569 -0.0599004 -1e-07 0.3364661 -0.0597127 1e-07 1 303 2 138 -139 
139 0.3364659 -0.05971290000000001 -1e-07 0.3515401 -0.0594349 1e-07 1 303 2 139 -140 
140 0.3515399 -0.0594351 -1e-07 0.3667631 -0.0590695 1e-07 1 303 2 140 -141 
141 0.3667629 -0.0590697 -1e-07 0.3821211 -0.0586192 1e-07 1 303 2 141 -142 
142 0.3821209 -0.0586194 -1e-07 0.3975971 -0.0580872 1e-07 1 303 2 142 -143 
143 0.3975969 -0.0580874 -1e-07 0.4131761 -0.0574764 1e-07 1 303 2 143 -144 
144 0.4131759 -0.0574766 -1e-07 0.4288431 -0.0567902 1e-07 1 303 2 144 -145 
145 0.4288429 -0.0567904 -1e-07 0.4445811 -0.056032 1e-07 1 303 2 145 -146 
146 0.4445809 -0.0560322 -1e-07 0.4603751 -0.0552052 1e-07 1 303 2 146 -147 
147 0.4603749 -0.0552054 -1e-07 0.4762091 -0.05431329999999999 1e-07 1 303 2 147 -148 
148 0.4762089 -0.0543135 -1e-07 0.4920671 -0.05336 1e-07 1 303 2 148 -149 
149 0.4920669 -0.0533602 -1e-07 0.5079330999999999 -0.05234879999999999 1e-07 1 303 2 149 -150 
150 0.5079329 -0.052349 -1e-07 0.5237911 -0.0512834 1e-07 1 303 2 150 -151 
151 0.5237909000000001 -0.05128360000000001 -1e-07 0.5396251 -0.05016739999999999 1e-07 1 303 2 151 -152 
152 0.5396249000000001 -0.0501676 -1e-07 0.5554190999999999 -0.0490044 1e-07 1 303 2 152 -153 
153 0.5554189 -0.0490046 -1e-07 0.5711571 -0.0477981 1e-07 1 303 2 153 -154 
154 0.5711569000000001 -0.0477983 -1e-07 0.5868241 -0.046552 1e-07 1 303 2 154 -155 
155 0.5868239000000001 -0.0465522 -1e-07 0.6024031 -0.0452697 1e-07 1 303 2 155 -156 
156 0.6024029000000001 -0.0452699 -1e-07 0.6178790999999999 -0.0439548 1e-07 1 303 2 156 -157 
157 0.6178789 -0.043955 -1e-07 0.6332371 -0.0426106 1e-07 1 303 2 157 -158 
158 0.6332369000000001 -0.0426108 -1e-07 0.6484601 -0.0412406 1e-07 1 303 2 158 -159 
159 0.6484599000000001 -0.0412408 -1e-07 0.6635340999999999 -0.0398481 1e-07 1 303 2 159 -160 
160 0.6635339 -0.0398483 -1e-07 0.6784431 -0.0384365 1e-07 1 303 2 160 -161 
161 0.6784429000000001 -0.0384367 -1e-07 0.6931731 -0.037009 1e-07 1 303 2 161 -162 
162 0.6931729000000001 -0.03700920000000001 -1e-07 0.7077081 -0.0355689 1e-07 1 303 2 162 -163 
163 0.7077079000000001 -0.03556910000000001 -1e-07 0.7220331 -0.0341193 1e-07 1 303 2 163 -164 
164 0.7220329000000001 -0.0341195 -1e-07 0.7361361 -0.0326634 1e-07 1 303 2 164 -165 
165 0.7361359000000001 -0.0326636 -1e-07 0.7500000999999999 -0.0312043 1e-07 1 303 2 165 -166 
166 0.7499999000000001 -0.0312045 -1e-07 0.7636130999999999 -0.029745 1e-07 1 303 2 166 -167 
167 0.7636129 -0.0297452 -1e-07 0.7769600999999999 -0.0282886 1e-07 1 303 2 167 -168 
168 0.7769599 -0.0282888 -1e-07 0.7900280999999999 -0.0268381 1e-07 1 303 2 168 -169 
169 0.7900279 -0.0268383 -1e-07 0.8028050999999999 -0.0253965 1e-07 1 303 2 169 -170 
170 0.8028049 -0.0253967 -1e-07 0.8152760999999999 -0.0239668 1e-07 1 303 2 170 -171 
171 0.8152759000000001 -0.023967 -1e-07 0.8274300999999999 -0.022552 1e-07 1 303 2 171 -172 
172 0.8274299000000001 -0.0225522 -1e-07 0.8392550999999999 -0.021155 1e-07 1 303 2 172 -173 
173 0.8392549 -0.0211552 -1e-07 0.8507370999999999 -0.0197788 1e-07 1 303 2 173 -174 
174 0.8507369 -0.019779 -1e-07 0.8618671 -0.0184264 1e-07 1 303 2 174 -175 
175 0.8618669000000001 -0.0184266 -1e-07 0.8726320999999999 -0.0171005 1e-07 1 303 2 175 -176 
176 0.8726319 -0.0171007 -1e-07 0.8830220999999999 -0.0158043 1e-07 1 303 2 176 -177 
177 0.8830219 -0.0158045 -1e-07 0.8930271 -0.0145405 1e-07 1 303 2 177 -178 
178 0.8930269000000001 -0.0145407 -1e-07 0.9026350999999999 -0.013312 1e-07 1 303 2 178 -179 
179 0.9026349 -0.0133122 -1e-07 0.9118381 -0.0121218 1e-07 1 303 2 179 -180 
180 0.9118379000000001 -0.012122 -1e-07 0.9206270999999999 -0.0109725 1e-07 1 303 2 180 -181 
181 0.9206269 -0.0109727 -1e-07 0.9289921 -0.009866930000000001 1e-07 1 303 2 181 -182 
182 0.9289919000000001 -0.00986713 -1e-07 0.9369251 -0.008807830000000001 1e-07 1 303 2 182 -183 
183 0.9369249000000001 -0.00880803 -1e-07 0.9444180999999999 -0.00779783 1e-07 1 303 2 183 -184 
184 0.9444179 -0.00779803 -1e-07 0.9514630999999999 -0.006839479999999999 1e-07 1 303 2 184 -185 
185 0.9514629 -0.00683968 -1e-07 0.9580540999999999 -0.005935269999999999 1e-07 1 303 2 185 -186 
186 0.9580539 -0.00593547 -1e-07 0.9641841 -0.00508757 1e-07 1 303 2 186 -187 
187 0.9641839000000001 -0.00508777 -1e-07 0.9698460999999999 -0.004298639999999999 1e-07 1 303 2 187 -188 
188 0.9698459 -0.00429884 -1e-07 0.9750361 -0.00357063 1e-07 1 303 2 188 -189 
189 0.9750359000000001 -0.00357083 -1e-07 0.9797461 -0.00290555 1e-07 1 303 2 189 -190 
190 0.9797459000000001 -0.00290575 -1e-07 0.9839741 -0.00230524 1e-07 1 303 2 190 -191 
191 0.9839739000000001 -0.00230544 -1e-07 0.9877151 -0.00177141 1e-07 1 303 2 191 -192 
192 0.9877149000000001 -0.00177161 -1e-07 0.9909640999999999 -0.00130557 1e-07 1 303 2 192 -193 
193 0.9909639 -0.00130577 -1e-07 0.9937191 -0.0009090700000000001 1e-07 1 303 2 193 -194 
194 0.9937189000000001 -0.00090927 -1e-07 0.9959770999999999 -0.00058306 1e-07 1 303 2 194 -195 
195 0.9959769000000001 -0.0005832599999999999 -1e-07 0.9977360999999999 -0.000328495 1e-07 1 303 2 195 -196 
196 0.9977359 -0.000328695 -1e-07 0.9989931 -0.000146123 1e-07 1 303 2 196 -197 
197 0.9989929000000001 -0.000146323 -1e-07 1.0000001 9.999999998335993e-08 1e-07 1 303 2 197 -1 
200 -2.7000001 -1e-07 -1e-07 1.000000000583867e-07 1e-07 1e-07 0 2 100 -202 
201 -1.000000000028756e-07 0.05791199999999974 -1e-07 0.2099721 4.0000001 1e-07 0 2 200 -70 
202 -1.000000000028756e-07 -4.0000001 -1e-07 0.2099721 -0.05791199999999974 1e-07 0 2 201 -130 
204 -2.7000001 -4.0000001 -1e-07 9.99999993922529e-08 1.000000009465651e-07 1e-07 1 300 2 202 -201 
210 0.9999999000000002 -1.000000000166533e-07 -1e-07 6.0000001 1e-07 1e-07 0 2 1 -212 
211 5.9999999 -9.999999983634211e-08 -1e-07 6.0000001 4.0000001 1e-07 1 302 2 210 -212 
212 5.9999999 -4.0000001 -1e-07 6.0000001 9.999999983634211e-08 1e-07 1 302 2 211 -212 
220 -9.999999983634211e-08 3.9999999 -1e-07 6.0000001 4.0000001 1e-07 0 2 200 -210 
221 -9.999999983634211e-08 -4.0000001 -1e-07 6.0000001 -3.9999999 1e-07 0 2 201 -211 
230 5.9999999 3.999999900000001 -1e-07 6.0000001 12.0000001 1e-07 1 302 2 210 -230 
231 5.9999999 -12.0000001 -1e-07 6.0000001 -3.999999900000001 1e-07 1 302 2 211 -231 
232 -9.999999983634211e-08 3.999999900000001 -1e-07 6.0000001 12.0000001 1e-07 1 300 2 200 -230 
233 -9.999999983634211e-08 -12.0000001 -1e-07 6.0000001 -3.999999900000001 1e-07 1 300 2 201 -231 
234 -3.0000001 -12.1000001 -1e-07 -2.9999999 12.1000001 1e-07 0 2 232 -233 
235 -3.000000100000001 -12.1000001 -1e-07 6.3000001 -12.0999999 1e-07 0 2 234 -232 
236 -3.0000001 12.0999999 -1e-07 6.300000100000001 12.1000001 1e-07 0 2 233 -235 
237 6.2999999 -12.1000001 -1e-07 6.3000001 12.1000001 1e-07 0 2 235 -234 
238 -2.702920358204597 -1.000000002804313e-07 -1e-07 1.000000000583867e-07 4.0000001 1e-07 0 2 200 -202 
239 0.1971949 0.0572086 -1e-07 0.2099721 0.0579122 1e-07 0 2 70 -236 
240 0.1847239 0.0564027 -1e-07 0.1971951 0.0572088 1e-07 0 2 236 -237 
241 0.1725699 0.05549469999999999 -1e-07 0.1847241 0.05640290000000001 1e-07 0 2 237 -238 
242 0.1607449 0.0544853 -1e-07 0.1725701 0.0554949 1e-07 0 2 238 -239 
243 0.1492629 0.0533755 -1e-07 0.1607451 0.05448550000000001 1e-07 0 2 239 -240 
244 0.1381329 0.0521667 -1e-07 0.1492631 0.05337570000000001 1e-07 0 2 240 -241 
245 0.1273679 0.0508604 -1e-07 0.1381331 0.0521669 1e-07 0 2 241 -242 
246 0.1169779 0.0494585 -1e-07 0.1273681 0.05086060000000001 1e-07 0 2 242 -243 
247 0.1069729 0.0479632 -1e-07 0.1169781 0.0494587 1e-07 0 2 243 -244 
248 0.0973648 0.0463767 -1e-07 0.1069731 0.0479634 1e-07 0 2 244 -245 
249 0.08816159999999999 0.0447017 -1e-07 0.09736500000000001 0.04637690000000001 1e-07 0 2 245 -246 
250 0.0793731 0.0429409 -1e-07 0.0881618 0.0447019 1e-07 0 2 246 -247 
251 0.07100819999999999 0.0410971 -1e-07 0.07937330000000001 0.0429411 1e-07 0 2 247 -248 
252 0.0630752 0.0391734 -1e-07 0.0710084 0.0410973 1e-07 0 2 248 -249 
253 0.0555822 0.03717289999999999 -1e-07 0.0630754 0.0391736 1e-07 0 2 249 -250 
254 0.0485366 0.0350988 -1e-07 0.0555824 0.0371731 1e-07 0 2 250 -251 
255 0.0419457 0.0329543 -1e-07 0.0485368 0.03509900000000001 1e-07 0 2 251 -252 
256 0.0358159 0.0307425 -1e-07 0.0419459 0.0329545 1e-07 0 2 252 -253 
257 0.0301536 0.0284668 -1e-07 0.0358161 0.0307427 1e-07 0 2 253 -254 
258 0.0249643 0.0261301 -1e-07 0.0301538 0.028467 1e-07 0 2 254 -255 
259 0.0202534 0.0237356 -1e-07 0.0249645 0.0261303 1e-07 0 2 255 -256 
260 0.0160255 0.0212861 -1e-07 0.0202536 0.0237358 1e-07 0 2 256 -257 
261 0.012285 0.0187843 -1e-07 0.0160257 0.0212863 1e-07 0 2 257 -258 
262 0.00903555 0.016233 -1e-07 0.0122852 0.0187845 1e-07 0 2 258 -259 
263 0.00628046 0.0136344 -1e-07 0.009035749999999999 0.0162332 1e-07 0 2 259 -260 
264 0.00402249 0.0109907 -1e-07 0.00628066 0.0136346 1e-07 0 2 260 -261 
265 0.00226394 0.008303900000000001 -1e-07 0.004022690000000001 0.0109909 1e-07 0 2 261 -262 
266 0.00100656 0.0055756 -1e-07 0.00226414 0.0083041 1e-07 0 2 262 -263 
267 0.0002516290000000001 0.00280722 -1e-07 0.00100676 0.005575800000000001 1e-07 0 2 263 -264 
268 -1.000000000000024e-07 -1.000000000000566e-07 -1e-07 0.000251829 0.00280742 1e-07 0 2 264 -100 
1 -2.702920358204597 -1.000000002804313e-07 -1e-07 0.2099720999999999 4.0000001 1e-07 1 236 33 200 -238 201 239 240 241 242 243 244 245 246 247 248 249 250 251 252 253 254 255 256 257 258 259 260 261 262 263 264 265 266 267 268 
2 -2.7000001 -4.0000001 -1e-07 0.2099721000000001 1.000000009465651e-07 1e-07 1 236 33 -204 -200 100 101 102 103 104 105 106 107 108 109 110 111 112 113 114 115 116 117 118 119 120 121 122 123 124 125 126 127 128 129 -202 
5 -9.999999983634211e-08 -9.999999983634211e-08 -1e-07 6.0000001 4.0000001 1e-07 1 236 72 69 -201 220 211 -210 1 3 4 5 6 7 8 9 10 11 12 13 14 15 16 17 18 19 20 21 22 23 24 25 26 27 28 29 30 31 32 33 34 35 36 37 38 39 40 41 42 43 44 45 46 47 48 49 50 51 52 53 54 55 56 57 58 59 60 61 62 63 64 65 66 67 68 
6 -9.999999983634211e-08 -4.0000001 -1e-07 6.0000001 9.999999983634211e-08 1e-07 1 236 72 202 130 131 132 133 134 135 136 137 138 139 140 141 142 143 144 145 146 147 148 149 150 151 152 153 154 155 156 157 158 159 160 161 162 163 164 165 166 167 168 169 170 171 172 173 174 175 176 177 178 179 180 181 182 183 184 185 186 187 188 189 190 191 192 193 194 195 196 197 210 -212 -221 
7 -9.999999983634211e-08 3.999999900000001 -1e-07 6.0000001 12.0000001 1e-07 1 236 3 232 -230 -220 
8 -9.999999983634211e-08 -12.0000001 -1e-07 6.0000001 -3.999999900000001 1e-07 1 236 3 221 231 -233 
9 -3.0000001 -12.1000001 -1e-07 6.300000100000001 12.1000001 1e-07 0 37 234 236 237 235 -200 -268 -267 -266 -265 -264 -263 -262 -261 -260 -259 -258 -257 -256 -255 -254 -253 -252 -251 -250 -249 -248 -247 -246 -245 -244 -243 -242 -241 -240 -239 -201 238 
$EndEntities
$Nodes
356 484 1 484
0 1 0 1
1
1 -1.66533e-17 0
0 3 0 1
2
0.998993 0.000146223 0
0 4 0 1
3
0.997736 0.000328595 0
0 5 0 1
4
0.995977 0.00058316 0
0 6 0 1
5
0.993719 0.0009091700000000001 0
0 7 0 1
6
0.990964 0.00130567 0
0 8 0 1
7
0.987715 0.00177151 0
0 9 0 1
8
0.983974 0.00230534 0
0 10 0 1
9
0.979746 0.00290565 0
0 11 0 1
10
0.975036 0.00357073 0
0 12 0 1
11
0.969846 0.00429874 0
0 13 0 1
12
0.964184 0.00508767 0
0 14 0 1
13
0.958054 0.00593537 0
0 15 0 1
14
0.9514629999999999 0.00683958 0
0 16 0 1
15
0.944418 0.00779793 0
0 17 0 1
16
0.936925 0.00880793 0
0 18 0 1
17
0.928992 0.009867030000000001 0
0 19 0 1
18
0.920627 0.0109726 0
0 20 0 1
19
0.911838 0.0121219 0
0 21 0 1
20
0.902635 0.0133121 0
0 22 0 1
21
0.893027 0.0145406 0
0 23 0 1
22
0.883022 0.0158044 0
0 24 0 1
23
0.872632 0.0171006 0
0 25 0 1
24
0.861867 0.0184265 0
0 26 0 1
25
0.850737 0.0197789 0
0 27 0 1
26
0.839255 0.0211551 0
0 28 0 1
27
0.82743 0.0225521 0
0 29 0 1
28
0.815276 0.0239669 0
0 30 0 1
29
0.802805 0.0253966 0
0 31 0 1
30
0.790028 0.0268382 0
0 32 0 1
31
0.77696 0.0282887 0
0 33 0 1
32
0.763613 0.0297451 0
0 34 0 1
33
0.75 0.0312044 0
0 35 0 1
34
0.736136 0.0326635 0
0 36 0 1
35
0.722033 0.0341194 0
0 37 0 1
36
0.707708 0.035569 0
0 38 0 1
37
0.693173 0.0370091 0
0 39 0 1
38
0.678443 0.0384366 0
0 40 0 1
39
0.663534 0.0398482 0
0 41 0 1
40
0.64846 0.0412407 0
0 42 0 1
41
0.633237 0.0426107 0
0 43 0 1
42
0.617879 0.0439549 0
0 44 0 1
43
0.602403 0.0452698 0
0 45 0 1
44
0.586824 0.0465521 0
0 46 0 1
45
0.571157 0.0477982 0
0 47 0 1
46
0.555419 0.0490045 0
0 48 0 1
47
0.539625 0.0501675 0
0 49 0 1
48
0.523791 0.0512835 0
0 50 0 1
49
0.507933 0.0523489 0
0 51 0 1
50
0.492067 0.0533601 0
0 52 0 1
51
0.476209 0.0543134 0
0 53 0 1
52
0.460375 0.0552053 0
0 54 0 1
53
0.444581 0.0560321 0
0 55 0 1
54
0.428843 0.0567903 0
0 56 0 1
55
0.413176 0.0574765 0
0 57 0 1
56
0.397597 0.0580873 0
0 58 0 1
57
0.382121 0.0586193 0
0 59 0 1
58
0.366763 0.0590696 0
0 60 0 1
59
0.35154 0.059435 0
0 61 0 1
60
0.336466 0.0597128 0
0 62 0 1
61
0.321557 0.0599003 0
0 63 0 1
62
0.306827 0.0599951 0
0 64 0 1
63
0.292292 0.0599951 0
0 65 0 1
64
0.277967 0.0598982 0
0 66 0 1
65
0.263864 0.0597028 0
0 67 0 1
66
0.25 0.0594075 0
0 68 0 1
67
0.236387 0.0590111 0
0 69 0 1
68
0.22304 0.0585128 0
0 70 0 1
69
0.209972 0.0579121 0
0 100 0 1
70
0 0 0
0 101 0 1
71
0.000251729 -0.00280732 0
0 102 0 1
72
0.00100666 -0.0055757 0
0 103 0 1
73
0.00226404 -0.008304000000000001 0
0 104 0 1
74
0.00402259 -0.0109908 0
0 105 0 1
75
0.00628056 -0.0136345 0
0 106 0 1
76
0.009035649999999999 -0.0162331 0
0 107 0 1
77
0.0122851 -0.0187844 0
0 108 0 1
78
0.0160256 -0.0212862 0
0 109 0 1
79
0.0202535 -0.0237357 0
0 110 0 1
80
0.0249644 -0.0261302 0
0 111 0 1
81
0.0301537 -0.0284669 0
0 112 0 1
82
0.035816 -0.0307426 0
0 113 0 1
83
0.0419458 -0.0329544 0
0 114 0 1
84
0.0485367 -0.0350989 0
0 115 0 1
85
0.0555823 -0.037173 0
0 116 0 1
86
0.0630753 -0.0391735 0
0 117 0 1
87
0.0710083 -0.0410972 0
0 118 0 1
88
0.0793732 -0.042941 0
0 119 0 1
89
0.0881617 -0.0447018 0
0 120 0 1
90
0.0973649 -0.0463768 0
0 121 0 1
91
0.106973 -0.0479633 0
0 122 0 1
92
0.116978 -0.0494586 0
0 123 0 1
93
0.127368 -0.0508605 0
0 124 0 1
94
0.138133 -0.0521668 0
0 125 0 1
95
0.149263 -0.0533756 0
0 126 0 1
96
0.160745 -0.0544854 0
0 127 0 1
97
0.17257 -0.0554948 0
0 128 0 1
98
0.184724 -0.0564028 0
0 129 0 1
99
0.197195 -0.0572087 0
0 130 0 1
100
0.209972 -0.0579121 0
0 131 0 1
101
0.22304 -0.0585128 0
0 132 0 1
102
0.236387 -0.0590111 0
0 133 0 1
103
0.25 -0.0594075 0
0 134 0 1
104
0.263864 -0.0597028 0
0 135 0 1
105
0.277967 -0.0598982 0
0 136 0 1
106
0.292292 -0.0599951 0
0 137 0 1
107
0.306827 -0.0599951 0
0 138 0 1
108
0.321557 -0.0599003 0
0 139 0 1
109
0.336466 -0.0597128 0
0 140 0 1
110
0.35154 -0.059435 0
0 141 0 1
111
0.366763 -0.0590696 0
0 142 0 1
112
0.382121 -0.0586193 0
0 143 0 1
113
0.397597 -0.0580873 0
0 144 0 1
114
0.413176 -0.0574765 0
0 145 0 1
115
0.428843 -0.0567903 0
0 146 0 1
116
0.444581 -0.0560321 0
0 147 0 1
117
0.460375 -0.0552053 0
0 148 0 1
118
0.476209 -0.0543134 0
0 149 0 1
119
0.492067 -0.0533601 0
0 150 0 1
120
0.507933 -0.0523489 0
0 151 0 1
121
0.523791 -0.0512835 0
0 152 0 1
122
0.539625 -0.0501675 0
0 153 0 1
123
0.555419 -0.0490045 0
0 154 0 1
124
0.571157 -0.0477982 0
0 155 0 1
125
0.586824 -0.0465521 0
0 156 0 1
126
0.602403 -0.0452698 0
0 157 0 1
127
0.617879 -0.0439549 0
0 158 0 1
128
0.633237 -0.0426107 0
0 159 0 1
129
0.64846 -0.0412407 0
0 160 0 1
130
0.663534 -0.0398482 0
0 161 0 1
131
0.678443 -0.0384366 0
0 162 0 1
132
0.693173 -0.0370091 0
0 163 0 1
133
0.707708 -0.035569 0
0 164 0 1
134
0.722033 -0.0341194 0
0 165 0 1
135
0.736136 -0.0326635 0
0 166 0 1
136
0.75 -0.0312044 0
0 167 0 1
137
0.763613 -0.0297451 0
0 168 0 1
138
0.77696 -0.0282887 0
0 169 0 1
139
0.790028 -0.0268382 0
0 170 0 1
140
0.802805 -0.0253966 0
0 171 0 1
141
0.815276 -0.0239669 0
0 172 0 1
142
0.82743 -0.0225521 0
0 173 0 1
143
0.839255 -0.0211551 0
0 174 0 1
144
0.850737 -0.0197789 0
0 175 0 1
145
0.861867 -0.0184265 0
0 176 0 1
146
0.872632 -0.0171006 0
0 177 0 1
147
0.883022 -0.0158044 0
0 178 0 1
148
0.893027 -0.0145406 0
0 179 0 1
149
0.902635 -0.0133121 0
0 180 0 1
150
0.911838 -0.0121219 0
0 181 0 1
151
0.920627 -0.0109726 0
0 182 0 1
152
0.928992 -0.009867030000000001 0
0 183 0 1
153
0.936925 -0.00880793 0
0 184 0 1
154
0.944418 -0.00779793 0
0 185 0 1
155
0.9514629999999999 -0.00683958 0
0 186 0 1
156
0.958054 -0.00593537 0
0 187 0 1
157
0.964184 -0.00508767 0
0 188 0 1
158
0.969846 -0.00429874 0
0 189 0 1
159
0.975036 -0.00357073 0
0 190 0 1
160
0.979746 -0.00290565 0
0 191 0 1
161
0.983974 -0.00230534 0
0 192 0 1
162
0.987715 -0.00177151 0
0 193 0 1
163
0.990964 -0.00130567 0
0 194 0 1
164
0.993719 -0.0009091700000000001 0
0 195 0 1
165
0.995977 -0.00058316 0
0 196 0 1
166
0.997736 -0.000328595 0
0 197 0 1
167
0.998993 -0.000146223 0
0 200 0 1
168
0 4 0
0 201 0 1
169
0 -4 0
0 202 0 1
170
-2.7 0 0
0 210 0 1
171
6 4 0
0 211 0 1
172
6 -4 0
0 212 0 1
173
6 0 0
0 230 0 1
174
6 12 0
0 231 0 1
175
6 -12 0
1 1 0 1
176
0.9994965 7.311149999999169e-05 0
1 3 0 1
177
0.9983645 0.000237409 0
1 4 0 1
178
0.9968565 0.0004558775 0
1 5 0 1
179
0.994848 0.000746165 0
1 6 0 1
180
0.9923415 0.00110742 0
1 7 0 1
181
0.9893395 0.00153859 0
1 8 0 1
182
0.9858445 0.002038425 0
1 9 0 1
183
0.98186 0.002605495 0
1 10 0 1
184
0.977391 0.00323819 0
1 11 0 1
185
0.972441 0.003934735 0
1 12 0 1
186
0.967015 0.004693205 0
1 13 0 1
187
0.9611190000000001 0.00551152 0
1 14 0 1
188
0.9547585 0.006387475 0
1 15 0 1
189
0.9479405 0.007318755 0
1 16 0 1
190
0.9406715 0.00830293 0
1 17 0 1
191
0.9329585 0.00933748 0
1 18 0 1
192
0.9248095000000001 0.010419815 0
1 19 0 1
193
0.9162325 0.01154725 0
1 20 0 1
194
0.9072365 0.012717 0
1 21 0 1
195
0.897831 0.01392635 0
1 22 0 1
196
0.8880245 0.0151725 0
1 23 0 1
197
0.8778269999999999 0.0164525 0
1 24 0 1
198
0.8672495 0.01776355 0
1 25 0 1
199
0.856302 0.0191027 0
1 26 0 1
200
0.844996 0.020467 0
1 27 0 1
201
0.8333425 0.0218536 0
1 28 0 1
202
0.821353 0.0232595 0
1 29 0 1
203
0.8090405000000001 0.02468175 0
1 30 0 1
204
0.7964165 0.0261174 0
1 31 0 1
205
0.7834939999999999 0.02756345 0
1 32 0 1
206
0.7702865 0.0290169 0
1 33 0 1
207
0.7568064999999999 0.03047475 0
1 34 0 1
208
0.7430680000000001 0.03193395 0
1 35 0 1
209
0.7290845 0.03339145 0
1 36 0 1
210
0.7148705 0.03484420000000001 0
1 37 0 1
211
0.7004405 0.03628905 0
1 38 0 1
212
0.685808 0.03772285 0
1 39 0 1
213
0.6709885 0.0391424 0
1 40 0 1
214
0.6559969999999999 0.04054445 0
1 41 0 1
215
0.6408485 0.0419257 0
1 42 0 1
216
0.6255580000000001 0.0432828 0
1 43 0 1
217
0.610141 0.04461235 0
1 44 0 1
218
0.5946135 0.04591095 0
1 45 0 1
219
0.5789905 0.04717515 0
1 46 0 1
220
0.563288 0.04840135 0
1 47 0 1
221
0.5475220000000001 0.049586 0
1 48 0 1
222
0.5317080000000001 0.0507255 0
1 49 0 1
223
0.515862 0.0518162 0
1 50 0 1
224
0.5 0.0528545 0
1 51 0 1
225
0.484138 0.05383675 0
1 52 0 1
226
0.468292 0.05475935 0
1 53 0 1
227
0.452478 0.0556187 0
1 54 0 1
228
0.436712 0.0564112 0
1 55 0 1
229
0.4210095 0.0571334 0
1 56 0 1
230
0.4053865 0.0577819 0
1 57 0 1
231
0.389859 0.0583533 0
1 58 0 1
232
0.374442 0.05884445 0
1 59 0 1
233
0.3591515 0.0592523 0
1 60 0 1
234
0.344003 0.0595739 0
1 61 0 1
235
0.3290115 0.05980655 0
1 62 0 1
236
0.314192 0.0599477 0
1 63 0 1
237
0.2995595 0.0599951 0
1 64 0 1
238
0.2851295 0.05994665 0
1 65 0 1
239
0.2709155 0.0598005 0
1 66 0 1
240
0.256932 0.05955515 0
1 67 0 1
241
0.2431935 0.0592093 0
1 68 0 1
242
0.2297135 0.05876194999999999 0
1 69 0 1
243
0.216506 0.05821245 0
1 100 0 1
244
0.0001258645 -0.00140366 0
1 101 0 1
245
0.0006291945 -0.00419151 0
1 102 0 1
246
0.00163535 -0.006939850000000001 0
1 103 0 1
247
0.003143315 -0.0096474 0
1 104 0 1
248
0.005151575 -0.01231265 0
1 105 0 1
249
0.007658105 -0.0149338 0
1 106 0 1
250
0.010660375 -0.01750875 0
1 107 0 1
251
0.01415535 -0.0200353 0
1 108 0 1
252
0.01813955 -0.02251095 0
1 109 0 1
253
0.02260895 -0.02493295 0
1 110 0 1
254
0.02755905 -0.02729855 0
1 111 0 1
255
0.03298485 -0.02960475 0
1 112 0 1
256
0.0388809 -0.0318485 0
1 113 0 1
257
0.04524125 -0.03402665000000001 0
1 114 0 1
258
0.0520595 -0.03613595 0
1 115 0 1
259
0.0593288 -0.03817325 0
1 116 0 1
260
0.0670418 -0.04013535 0
1 117 0 1
261
0.07519075 -0.0420191 0
1 118 0 1
262
0.08376744999999999 -0.0438214 0
1 119 0 1
263
0.09276329999999999 -0.0455393 0
1 120 0 1
264
0.10216895 -0.04717005000000001 0
1 121 0 1
265
0.1119755 -0.04871095 0
1 122 0 1
266
0.122173 -0.05015955 0
1 123 0 1
267
0.1327505 -0.05151365 0
1 124 0 1
268
0.143698 -0.0527712 0
1 125 0 1
269
0.155004 -0.05393050000000001 0
1 126 0 1
270
0.1666575 -0.0549901 0
1 127 0 1
271
0.178647 -0.0559488 0
1 128 0 1
272
0.1909595 -0.05680575 0
1 129 0 1
273
0.2035835 -0.0575604 0
1 130 0 1
274
0.216506 -0.05821245 0
1 131 0 1
275
0.2297135 -0.05876194999999999 0
1 132 0 1
276
0.2431935 -0.0592093 0
1 133 0 1
277
0.256932 -0.05955515 0
1 134 0 1
278
0.2709155 -0.0598005 0
1 135 0 1
279
0.2851295 -0.05994665 0
1 136 0 1
280
0.2995595 -0.0599951 0
1 137 0 1
281
0.314192 -0.0599477 0
1 138 0 1
282
0.3290115 -0.05980655 0
1 139 0 1
283
0.344003 -0.0595739 0
1 140 0 1
284
0.3591515 -0.0592523 0
1 141 0 1
285
0.374442 -0.05884445 0
1 142 0 1
286
0.389859 -0.0583533 0
1 143 0 1
287
0.4053865 -0.0577819 0
1 144 0 1
288
0.4210095 -0.0571334 0
1 145 0 1
289
0.436712 -0.0564112 0
1 146 0 1
290
0.452478 -0.0556187 0
1 147 0 1
291
0.468292 -0.05475935 0
1 148 0 1
292
0.484138 -0.05383675 0
1 149 0 1
293
0.5 -0.0528545 0
1 150 0 1
294
0.515862 -0.0518162 0
1 151 0 1
295
0.5317080000000001 -0.0507255 0
1 152 0 1
296
0.5475220000000001 -0.049586 0
1 153 0 1
297
0.563288 -0.04840135 0
1 154 0 1
298
0.5789905 -0.04717515 0
1 155 0 1
299
0.5946135 -0.04591095 0
1 156 0 1
300
0.610141 -0.04461235 0
1 157 0 1
301
0.6255580000000001 -0.0432828 0
1 158 0 1
302
0.6408485 -0.0419257 0
1 159 0 1
303
0.6559969999999999 -0.04054445 0
1 160 0 1
304
0.6709885 -0.0391424 0
1 161 0 1
305
0.685808 -0.03772285 0
1 162 0 1
306
0.7004405 -0.03628905 0
1 163 0 1
307
0.7148705 -0.03484420000000001 0
1 164 0 1
308
0.7290845 -0.03339145 0
1 165 0 1
309
0.7430680000000001 -0.03193395 0
1 166 0 1
310
0.7568064999999999 -0.03047475 0
1 167 0 1
311
0.7702865 -0.0290169 0
1 168 0 1
312
0.7834939999999999 -0.02756345 0
1 169 0 1
313
0.7964165 -0.0261174 0
1 170 0 1
314
0.8090405000000001 -0.02468175 0
1 171 0 1
315
0.821353 -0.0232595 0
1 172 0 1
316
0.8333425 -0.0218536 0
1 173 0 1
317
0.844996 -0.020467 0
1 174 0 1
318
0.856302 -0.0191027 0
1 175 0 1
319
0.8672495 -0.01776355 0
1 176 0 1
320
0.8778269999999999 -0.0164525 0
1 177 0 1
321
0.8880245 -0.0151725 0
1 178 0 1
322
0.897831 -0.01392635 0
1 179 0 1
323
0.9072365 -0.012717 0
1 180 0 1
324
0.9162325 -0.01154725 0
1 181 0 1
325
0.9248095000000001 -0.010419815 0
1 182 0 1
326
0.9329585 -0.00933748 0
1 183 0 1
327
0.9406715 -0.00830293 0
1 184 0 1
328
0.9479405 -0.007318755 0
1 185 0 1
329
0.9547585 -0.006387475 0
1 186 0 1
330
0.9611190000000001 -0.00551152 0
1 187 0 1
331
0.967015 -0.004693205 0
1 188 0 1
332
0.972441 -0.003934735 0
1 189 0 1
333
0.977391 -0.00323819 0
1 190 0 1
334
0.98186 -0.002605495 0
1 191 0 1
335
0.9858445 -0.002038425 0
1 192 0 1
336
0.9893395 -0.00153859 0
1 193 0 1
337
0.9923415 -0.00110742 0
1 194 0 1
338
0.994848 -0.000746165 0
1 195 0 1
339
0.9968565 -0.0004558775 0
1 196 0 1
340
0.9983645 -0.000237409 0
1 197 0 1
341
0.9994965 -7.311150000000833e-05 0
1 204 0 29
342
343
344
345
346
347
348
349
350
351
352
353
354
355
356
357
358
359
360
361
362
363
364
365
366
367
368
369
370
-2.694330091962887 -0.1746059279809434 0
-2.688660183925775 -0.3492118559618868 0
-2.671617449141277 -0.5230758928289138 0
-2.65457471435678 -0.6969399296959408 0
-2.626060575466507 -0.8692932136702032 0
-2.597546436576234 -1.041646497644466 0
-2.5573984039259 -1.211664517896541 0
-2.517250371275566 -1.381682538148616 0
-2.465245753043904 -1.548453265500584 0
-2.413241134812243 -1.715223992852553 0
-2.349104450321812 -1.877711164073773 0
-2.284967765831381 -2.040198335294993 0
-2.208385099707779 -2.197197680367776 0
-2.131802433584177 -2.35419702544056 0
-2.042446872645108 -2.504286292734292 0
-1.953091311706039 -2.654375560028025 0
-1.850666997267057 -2.795858267948086 0
-1.748242682828074 -2.937340975868147 0
-1.632558791933914 -3.068188596337949 0
-1.516874901039754 -3.199036216807751 0
-1.387959599052293 -3.316846558502234 0
-1.259044297064831 -3.434656900196716 0
-1.117309757716571 -3.536654537671005 0
-0.9755752183683106 -3.638652175145295 0
-0.8220323308441124 -3.72177630025947 0
-0.6684894433199142 -3.804900425373645 0
-0.5049670545849194 -3.866041226703407 0
-0.3414446658499246 -3.92718202803317 0
-0.1707223329249623 -3.963591014016585 0
1 211 0 11
371
372
373
374
375
376
377
378
379
380
381
6 3.291760177102951 0
6 2.583520354205902 0
6 2.101002165154687 0
6 1.618483976103471 0
6 1.289748140955931 0
6 0.9610123058083917 0
6 0.7370472051642465 0
6 0.5130821045201013 0
6 0.3604964504023953 0
6 0.2079107962846893 0
6 0.1039553981423447 0
1 212 0 11
382
383
384
385
386
387
388
389
390
391
392
6 -3.291760177102951 0
6 -2.583520354205902 0
6 -2.101002165154687 0
6 -1.618483976103471 0
6 -1.289748140955931 0
6 -0.9610123058083917 0
6 -0.7370472051642465 0
6 -0.5130821045201013 0
6 -0.3604964504023953 0
6 -0.2079107962846893 0
6 -0.1039553981423447 0
1 220 0 5
393
394
395
396
397
1 4 0
2 4 0
3 4 0
4 4 0
5 4 0
1 221 0 5
398
399
400
401
402
1 -4 0
2 -4 0
3 -4 0
4 -4 0
5 -4 0
1 230 0 7
403
404
405
406
407
408
409
6 5 0
6 6 0
6 7 0
6 8 0
6 9 0
6 10 0
6 11 0
1 231 0 7
410
411
412
413
414
415
416
6 -5 0
6 -6 0
6 -7 0
6 -8 0
6 -9 0
6 -10 0
6 -11 0
1 232 0 9
417
418
419
420
421
422
423
424
425
0.6 4.8 0
1.2 5.6 0
1.8 6.4 0
2.4 7.2 0
3 8 0
3.6 8.800000000000001 0
4.2 9.600000000000001 0
4.8 10.4 0
5.399999999999999 11.2 0
1 233 0 9
426
427
428
429
430
431
432
433
434
0.6 -4.8 0
1.2 -5.6 0
1.8 -6.4 0
2.4 -7.2 0
3 -8 0
3.6 -8.800000000000001 0
4.2 -9.600000000000001 0
4.8 -10.4 0
5.399999999999999 -11.2 0
2 1 0 0
2 2 0 0
2 5 0 0
2 6 0 0
2 7 0 25
435
436
437
438
439
440
441
442
443
444
445
446
447
448
449
450
451
452
453
454
455
456
457
458
459
3.831008616722306 6.064049440877129 0
5.149805399546017 9.456756791940213 0
4.677837451751838 8.120119881302411 0
2.27047531384682 5.16155819333106 0
5.316597476949262 8.005948573104575 0
4.334050074291232 7.218080898837218 0
5.016772889196011 6.026019530503573 0
5.152437467922742 7.052865544992597 0
3.037104869311342 6.723074185965999 0
4.11433130850007 8.410333960774221 0
3.622274139179302 7.569799165305086 0
4.99306093801153 9.837422795888253 0
5.507112202596947 9.658414413069826 0
5.47862633159484 10.43537176694293 0
1.825191936959734 5.353520233625186 0
2.831179901946645 5.47081230183348 0
2.390839044385524 5.992365278423785 0
3.955900490110717 4.929734505495864 0
2.164944671996745 4.675291142733813 0
3.000582993537575 4.78070865902113 0
1.387745229859346 4.701490074227178 0
4.955290071039623 8.894717567465253 0
4.561227518851264 9.184029258027859 0
5.447634415869109 8.886561931705545 0
4.981126048143405 4.997043517680352 0
2 8 0 25
460
461
462
463
464
465
466
467
468
469
470
471
472
473
474
475
476
477
478
479
480
481
482
483
484
3.825616237725831 -6.047959269820856 0
5.132812502813919 -9.398437541045194 0
4.617702856179002 -7.921989266401933 0
2.268904968093965 -5.15964433474796 0
4.086782240434228 -8.320742072560396 0
4.315191766156461 -7.157207698579096 0
3.032348415492861 -6.708727493300715 0
3.608860183575683 -7.526420266885207 0
5.012284694699543 -6.011985144258018 0
5.289621958705245 -7.919994688487982 0
5.13921287961009 -7.010264307665122 0
5.487748889586239 -9.620082439044324 0
4.978642780509611 -9.798991644211176 0
5.47213847735554 -10.41973346366013 0
2.828868304232742 -5.465409195489706 0
1.824061404210842 -5.352355129073549 0
2.388909188720034 -5.987662665444899 0
2.164026529627106 -4.674054548523278 0
3.954090610861526 -4.924795270257476 0
2.999182820698192 -4.777516878509354 0
1.387231243226266 -4.700968587795476 0
4.831212929018582 -8.496761198803238 0
5.413757412645664 -8.782092946879732 0
4.528418659091328 -9.078637607145989 0
4.979699198217666 -4.99280103590797 0
$EndNodes
$Elements
175 494 1 494
1 1 1 2
1 1 176 
2 176 2 
1 3 1 2
3 2 177 
4 177 3 
1 4 1 2
5 3 178 
6 178 4 
1 5 1 2
7 4 179 
8 179 5 
1 6 1 2
9 5 180 
10 180 6 
1 7 1 2
11 6 181 
12 181 7 
1 8 1 2
13 7 182 
14 182 8 
1 9 1 2
15 8 183 
16 183 9 
1 10 1 2
17 9 184 
18 184 10 
1 11 1 2
19 10 185 
20 185 11 
1 12 1 2
21 11 186 
22 186 12 
1 13 1 2
23 12 187 
24 187 13 
1 14 1 2
25 13 188 
26 188 14 
1 15 1 2
27 14 189 
28 189 15 
1 16 1 2
29 15 190 
30 190 16 
1 17 1 2
31 16 191 
32 191 17 
1 18 1 2
33 17 192 
34 192 18 
1 19 1 2
35 18 193 
36 193 19 
1 20 1 2
37 19 194 
38 194 20 
1 21 1 2
39 20 195 
40 195 21 
1 22 1 2
41 21 196 
42 196 22 
1 23 1 2
43 22 197 
44 197 23 
1 24 1 2
45 23 198 
46 198 24 
1 25 1 2
47 24 199 
48 199 25 
1 26 1 2
49 25 200 
50 200 26 
1 27 1 2
51 26 201 
52 201 27 
1 28 1 2
53 27 202 
54 202 28 
1 29 1 2
55 28 203 
56 203 29 
1 30 1 2
57 29 204 
58 204 30 
1 31 1 2
59 30 205 
60 205 31 
1 32 1 2
61 31 206 
62 206 32 
1 33 1 2
63 32 207 
64 207 33 
1 34 1 2
65 33 208 
66 208 34 
1 35 1 2
67 34 209 
68 209 35 
1 36 1 2
69 35 210 
70 210 36 
1 37 1 2
71 36 211 
72 211 37 
1 38 1 2
73 37 212 
74 212 38 
1 39 1 2
75 38 213 
76 213 39 
1 40 1 2
77 39 214 
78 214 40 
1 41 1 2
79 40 215 
80 215 41 
1 42 1 2
81 41 216 
82 216 42 
1 43 1 2
83 42 217 
84 217 43 
1 44 1 2
85 43 218 
86 218 44 
1 45 1 2
87 44 219 
88 219 45 
1 46 1 2
89 45 220 
90 220 46 
1 47 1 2
91 46 221 
92 221 47 
1 48 1 2
93 47 222 
94 222 48 
1 49 1 2
95 48 223 
96 223 49 
1 50 1 2
97 49 224 
98 224 50 
1 51 1 2
99 50 225 
100 225 51 
1 52 1 2
101 51 226 
102 226 52 
1 53 1 2
103 52 227 
104 227 53 
1 54 1 2
105 53 228 
106 228 54 
1 55 1 2
107 54 229 
108 229 55 
1 56 1 2
109 55 230 
110 230 56 
1 57 1 2
111 56 231 
112 231 57 
1 58 1 2
113 57 232 
114 232 58 
1 59 1 2
115 58 233 
116 233 59 
1 60 1 2
117 59 234 
118 234 60 
1 61 1 2
119 60 235 
120 235 61 
1 62 1 2
121 61 236 
122 236 62 
1 63 1 2
123 62 237 
124 237 63 
1 64 1 2
125 63 238 
126 238 64 
1 65 1 2
127 64 239 
128 239 65 
1 66 1 2
129 65 240 
130 240 66 
1 67 1 2
131 66 241 
132 241 67 
1 68 1 2
133 67 242 
134 242 68 
1 69 1 2
135 68 243 
136 243 69 
1 100 1 2
137 70 244 
138 244 71 
1 101 1 2
139 71 245 
140 245 72 
1 102 1 2
141 72 246 
142 246 73 
1 103 1 2
143 73 247 
144 247 74 
1 104 1 2
145 74 248 
146 248 75 
1 105 1 2
147 75 249 
148 249 76 
1 106 1 2
149 76 250 
150 250 77 
1 107 1 2
151 77 251 
152 251 78 
1 108 1 2
153 78 252 
154 252 79 
1 109 1 2
155 79 253 
156 253 80 
1 110 1 2
157 80 254 
158 254 81 
1 111 1 2
159 81 255 
160 255 82 
1 112 1 2
161 82 256 
162 256 83 
1 113 1 2
163 83 257 
164 257 84 
1 114 1 2
165 84 258 
166 258 85 
1 115 1 2
167 85 259 
168 259 86 
1 116 1 2
169 86 260 
170 260 87 
1 117 1 2
171 87 261 
172 261 88 
1 118 1 2
173 88 262 
174 262 89 
1 119 1 2
175 89 263 
176 263 90 
1 120 1 2
177 90 264 
178 264 91 
1 121 1 2
179 91 265 
180 265 92 
1 122 1 2
181 92 266 
182 266 93 
1 123 1 2
183 93 267 
184 267 94 
1 124 1 2
185 94 268 
186 268 95 
1 125 1 2
187 95 269 
188 269 96 
1 126 1 2
189 96 270 
190 270 97 
1 127 1 2
191 97 271 
192 271 98 
1 128 1 2
193 98 272 
194 272 99 
1 129 1 2
195 99 273 
196 273 100 
1 130 1 2
197 100 274 
198 274 101 
1 131 1 2
199 101 275 
200 275 102 
1 132 1 2
201 102 276 
202 276 103 
1 133 1 2
203 103 277 
204 277 104 
1 134 1 2
205 104 278 
206 278 105 
1 135 1 2
207 105 279 
208 279 106 
1 136 1 2
209 106 280 
210 280 107 
1 137 1 2
211 107 281 
212 281 108 
1 138 1 2
213 108 282 
214 282 109 
1 139 1 2
215 109 283 
216 283 110 
1 140 1 2
217 110 284 
218 284 111 
1 141 1 2
219 111 285 
220 285 112 
1 142 1 2
221 112 286 
222 286 113 
1 143 1 2
223 113 287 
224 287 114 
1 144 1 2
225 114 288 
226 288 115 
1 145 1 2
227 115 289 
228 289 116 
1 146 1 2
229 116 290 
230 290 117 
1 147 1 2
231 117 291 
232 291 118 
1 148 1 2
233 118 292 
234 292 119 
1 149 1 2
235 119 293 
236 293 120 
1 150 1 2
237 120 294 
238 294 121 
1 151 1 2
239 121 295 
240 295 122 
1 152 1 2
241 122 296 
242 296 123 
1 153 1 2
243 123 297 
244 297 124 
1 154 1 2
245 124 298 
246 298 125 
1 155 1 2
247 125 299 
248 299 126 
1 156 1 2
249 126 300 
250 300 127 
1 157 1 2
251 127 301 
252 301 128 
1 158 1 2
253 128 302 
254 302 129 
1 159 1 2
255 129 303 
256 303 130 
1 160 1 2
257 130 304 
258 304 131 
1 161 1 2
259 131 305 
260 305 132 
1 162 1 2
261 132 306 
262 306 133 
1 163 1 2
263 133 307 
264 307 134 
1 164 1 2
265 134 308 
266 308 135 
1 165 1 2
267 135 309 
268 309 136 
1 166 1 2
269 136 310 
270 310 137 
1 167 1 2
271 137 311 
272 311 138 
1 168 1 2
273 138 312 
274 312 139 
1 169 1 2
275 139 313 
276 313 140 
1 170 1 2
277 140 314 
278 314 141 
1 171 1 2
279 141 315 
280 315 142 
1 172 1 2
281 142 316 
282 316 143 
1 173 1 2
283 143 317 
284 317 144 
1 174 1 2
285 144 318 
286 318 145 
1 175 1 2
287 145 319 
288 319 146 
1 176 1 2
289 146 320 
290 320 147 
1 177 1 2
291 147 321 
292 321 148 
1 178 1 2
293 148 322 
294 322 149 
1 179 1 2
295 149 323 
296 323 150 
1 180 1 2
297 150 324 
298 324 151 
1 181 1 2
299 151 325 
300 325 152 
1 182 1 2
301 152 326 
302 326 153 
1 183 1 2
303 153 327 
304 327 154 
1 184 1 2
305 154 328 
306 328 155 
1 185 1 2
307 155 329 
308 329 156 
1 186 1 2
309 156 330 
310 330 157 
1 187 1 2
311 157 331 
312 331 158 
1 188 1 2
313 158 332 
314 332 159 
1 189 1 2
315 159 333 
316 333 160 
1 190 1 2
317 160 334 
318 334 161 
1 191 1 2
319 161 335 
320 335 162 
1 192 1 2
321 162 336 
322 336 163 
1 193 1 2
323 163 337 
324 337 164 
1 194 1 2
325 164 338 
326 338 165 
1 195 1 2
327 165 339 
328 339 166 
1 196 1 2
329 166 340 
330 340 167 
1 197 1 2
331 167 341 
332 341 1 
1 204 1 30
333 170 342 
334 342 343 
335 343 344 
336 344 345 
337 345 346 
338 346 347 
339 347 348 
340 348 349 
341 349 350 
342 350 351 
343 351 352 
344 352 353 
345 353 354 
346 354 355 
347 355 356 
348 356 357 
349 357 358 
350 358 359 
351 359 360 
352 360 361 
353 361 362 
354 362 363 
355 363 364 
356 364 365 
357 365 366 
358 366 367 
359 367 368 
360 368 369 
361 369 370 
362 370 169 
1 211 1 12
363 171 371 
364 371 372 
365 372 373 
366 373 374 
367 374 375 
368 375 376 
369 376 377 
370 377 378 
371 378 379 
372 379 380 
373 380 381 
374 381 173 
1 212 1 12
375 172 382 
376 382 383 
377 383 384 
378 384 385 
379 385 386 
380 386 387 
381 387 388 
382 388 389 
383 389 390 
384 390 391 
385 391 392 
386 392 173 
1 230 1 8
387 171 403 
388 403 404 
389 404 405 
390 405 406 
391 406 407 
392 407 408 
393 408 409 
394 409 174 
1 231 1 8
395 172 410 
396 410 411 
397 411 412 
398 412 413 
399 413 414 
400 414 415 
401 415 416 
402 416 175 
1 232 1 10
403 168 417 
404 417 418 
405 418 419 
406 419 420 
407 420 421 
408 421 422 
409 422 423 
410 423 424 
411 424 425 
412 425 174 
1 233 1 10
413 169 426 
414 426 427 
415 427 428 
416 428 429 
417 429 430 
418 430 431 
419 431 432 
420 432 433 
421 433 434 
422 434 175 
2 7 3 36
423 406 405 442 439 
424 437 439 442 440 
425 435 440 442 441 
426 404 441 442 405 
427 422 444 445 421 
428 420 421 445 443 
429 435 443 445 440 
430 437 440 445 444 
431 174 409 448 425 
432 424 425 448 446 
433 436 446 448 447 
434 408 447 448 409 
435 418 419 451 449 
436 438 449 451 450 
437 435 450 451 443 
438 420 443 451 419 
439 394 453 454 395 
440 396 395 454 452 
441 435 452 454 450 
442 438 450 454 453 
443 168 417 455 393 
444 394 393 455 453 
445 438 453 455 449 
446 418 449 455 417 
447 424 446 457 423 
448 422 423 457 444 
449 437 444 457 456 
450 436 456 457 446 
451 408 407 458 447 
452 436 447 458 456 
453 437 456 458 439 
454 406 439 458 407 
455 435 441 459 452 
456 396 452 459 397 
457 171 397 459 403 
458 404 403 459 441 
2 8 3 36
459 431 430 467 464 
460 462 464 467 465 
461 460 465 467 466 
462 429 466 467 430 
463 413 469 470 412 
464 411 412 470 468 
465 460 468 470 465 
466 462 465 470 469 
467 175 434 473 416 
468 415 416 473 471 
469 461 471 473 472 
470 433 472 473 434 
471 427 475 476 428 
472 429 428 476 466 
473 460 466 476 474 
474 463 474 476 475 
475 399 400 479 477 
476 463 477 479 474 
477 460 474 479 478 
478 401 478 479 400 
479 169 398 480 426 
480 427 426 480 475 
481 463 475 480 477 
482 399 477 480 398 
483 415 471 482 414 
484 413 414 482 469 
485 462 469 482 481 
486 461 481 482 471 
487 433 432 483 472 
488 461 472 483 481 
489 462 481 483 464 
490 431 464 483 432 
491 172 410 484 402 
492 401 402 484 478 
493 460 478 484 468 
494 411 468 484 410 
$EndElements
