$MeshFormat
4.1 0 8
$EndMeshFormat
$Entities
4 4 1 0
0 0 0 0 0 
1 0 10 0 0 
2 10 10 0 0 
3 10 0 0 0 
0 -1e-07 -1.000000002804313e-07 -1e-07 1e-07 10.0000001 1e-07 0 2 0 -1 
1 -1.000000002804313e-07 9.999999900000001 -1e-07 10.0000001 10.0000001 1e-07 0 2 1 -2 
2 9.999999900000001 -1.000000002804313e-07 -1e-07 10.0000001 10.0000001 1e-07 0 2 2 -3 
3 -1.000000002804313e-07 -1e-07 -1e-07 10.0000001 1e-07 1e-07 0 2 3 0 
1 -1.000000002804313e-07 -1.000000002804313e-07 -1e-07 10.0000001 10.0000001 1e-07 0 4 0 1 2 3 
$EndEntities
$Nodes
9 16 1 16
0 0 0 1
1
0 0 0
0 1 0 1
2
0 10 0
0 2 0 1
3
10 10 0
0 3 0 1
4
10 0 0
1 0 0 2
5
6
0 3.333333333333333 0
0 6.666666666666666 0
1 1 0 2
7
8
3.333333333333333 10 0
6.666666666666666 10 0
1 2 0 2
9
10
10 6.666666666666667 0
10 3.333333333333334 0
1 3 0 2
11
12
6.666666666666667 0 0
3.333333333333334 0 0
2 1 0 4
13
14
15
16
3.333333333333333 3.333333333333334 0
6.666666666666666 3.333333333333334 0
3.333333333333333 6.666666666666666 0
6.666666666666666 6.666666666666666 0
$EndNodes
$Elements
9 25 1 25
0 0 15 1
1 1 
0 1 15 1
2 2 
0 2 15 1
3 3 
0 3 15 1
4 4 
1 0 1 3
5 1 5 
6 5 6 
7 6 2 
1 1 1 3
8 2 7 
9 7 8 
10 8 3 
1 2 1 3
11 3 9 
12 9 10 
13 10 4 
1 3 1 3
14 4 11 
15 11 12 
16 12 1 
2 1 3 9
17 1 5 13 12 
18 12 13 14 11 
19 11 14 10 4 
20 5 6 15 13 
21 13 15 16 14 
22 14 16 9 10 
23 6 2 7 15 
24 15 7 8 16 
25 16 8 3 9 
$EndElements
