$MeshFormat
4.1 0 8
$EndMeshFormat
$PhysicalNames
1
1 300 "Inlet"
$EndPhysicalNames
$Entities
4 4 1 0
0 0 0 0 0 
1 0 10 0 0 
2 10 10 0 0 
3 10 0 0 0 
0 -1e-07 -1.000000002804313e-07 -1e-07 1e-07 10.0000001 1e-07 1 0 2 0 -1 
1 -1.000000002804313e-07 9.999999900000001 -1e-07 10.0000001 10.0000001 1e-07 0 2 1 -2 
2 9.999999900000001 -1.000000002804313e-07 -1e-07 10.0000001 10.0000001 1e-07 0 2 2 -3 
3 -1.000000002804313e-07 -1e-07 -1e-07 10.0000001 1e-07 1e-07 0 2 3 0 
1 -1.000000002804313e-07 -1.000000002804313e-07 -1e-07 10.0000001 10.0000001 1e-07 0 4 0 1 2 3 
$EndEntities
$Nodes
3 4 1 6
0 0 0 1
1
0 0 0
0 1 0 1
2
0 10 0
1 0 0 2
5
6
0 3.333333333333333 0
0 6.666666666666666 0
$EndNodes
$Elements
1 3 5 7
1 0 1 3
5 1 5 
6 5 6 
7 6 2 
$EndElements
